<svg width="30" height="44" viewBox="0 0 30 44" fill="none" xmlns="http://www.w3.org/2000/svg">
<g clip-path="url(#clip0_1_6)">
<rect width="30" height="43.0531" transform="translate(0 0.473511)" fill="white" fill-opacity="0.01"/>
<path fill-rule="evenodd" clip-rule="evenodd" d="M12.7125 0.493889C12.5682 0.500371 12.45 0.51855 12.45 0.534345C12.45 0.550065 12.3623 0.562954 12.255 0.562954C12.145 0.562954 12.06 0.575918 12.06 0.592756C12.06 0.609296 11.98 0.622557 11.88 0.622557C11.7801 0.622557 11.7 0.635819 11.7 0.652359C11.7 0.66875 11.6393 0.682161 11.565 0.682161C11.4908 0.682161 11.43 0.695571 11.43 0.711962C11.43 0.728353 11.3727 0.741913 11.3025 0.742062C11.2324 0.742285 11.1087 0.762401 11.0277 0.786764C10.9467 0.811202 10.8354 0.831169 10.7802 0.831169C10.7251 0.831169 10.68 0.844579 10.68 0.86097C10.68 0.877361 10.6336 0.890772 10.5768 0.890772C10.5201 0.890772 10.4652 0.904183 10.455 0.920573C10.4448 0.936964 10.39 0.950375 10.3332 0.950375C10.2765 0.950375 10.23 0.963786 10.23 0.980177C10.23 0.996568 10.1895 1.00998 10.14 1.00998C10.0905 1.00998 10.05 1.02339 10.05 1.03978C10.05 1.05617 10.0095 1.06958 9.96003 1.06958C9.91053 1.06958 9.87003 1.08299 9.87003 1.09938C9.87003 1.11577 9.8371 1.12918 9.79683 1.12918C9.75655 1.12918 9.71523 1.1426 9.70503 1.15899C9.69483 1.17538 9.6535 1.18879 9.61323 1.18879C9.57295 1.18879 9.54003 1.2022 9.54003 1.21859C9.54003 1.23498 9.49953 1.24839 9.45003 1.24839C9.40053 1.24839 9.36003 1.2618 9.36003 1.27819C9.36003 1.29458 9.31953 1.30799 9.27003 1.30799C9.22053 1.30799 9.18003 1.31924 9.18003 1.33303C9.18003 1.34674 9.09228 1.38295 8.98503 1.41342C8.87778 1.44389 8.79003 1.47958 8.79003 1.49269C8.79003 1.50588 8.7643 1.51661 8.73288 1.51661C8.67168 1.51661 8.42163 1.63589 8.40505 1.67306C8.3995 1.68536 8.36913 1.69542 8.33755 1.69542C8.3059 1.69542 8.28003 1.70883 8.28003 1.72522C8.28003 1.74161 8.23953 1.75502 8.19003 1.75502C8.14053 1.75502 8.10003 1.76843 8.10003 1.78482C8.10003 1.80121 8.07303 1.81462 8.04003 1.81462C8.00703 1.81462 7.98003 1.8255 7.98003 1.83884C7.98003 1.85217 7.93278 1.88153 7.87503 1.90403C7.81728 1.92653 7.77003 1.95588 7.77003 1.96922C7.77003 1.98255 7.75023 1.99343 7.72608 1.99343C7.6651 1.99343 7.47003 2.0885 7.47003 2.11815C7.47003 2.13149 7.44303 2.14244 7.41003 2.14244C7.37703 2.14244 7.35003 2.15585 7.35003 2.17224C7.35003 2.18863 7.32303 2.20204 7.29003 2.20204C7.25703 2.20204 7.23003 2.21545 7.23003 2.23184C7.23003 2.24823 7.20978 2.26165 7.18503 2.26165C7.16028 2.26165 7.14003 2.27506 7.14003 2.29145C7.14003 2.30784 7.11603 2.32125 7.08663 2.32125C7.0573 2.32125 7.0138 2.34807 6.99003 2.38085C6.96625 2.41363 6.92275 2.44046 6.89343 2.44046C6.86403 2.44046 6.84003 2.45387 6.84003 2.47026C6.84003 2.48665 6.81798 2.50006 6.79105 2.50006C6.76413 2.50006 6.72025 2.52494 6.69355 2.55541C6.66685 2.58581 6.61465 2.62023 6.57753 2.63193C6.5404 2.64355 6.51003 2.66561 6.51003 2.68088C6.51003 2.69615 6.48603 2.70867 6.45663 2.70867C6.4273 2.70867 6.3838 2.73549 6.36003 2.76827C6.33625 2.80105 6.2977 2.82788 6.27445 2.82788C6.25113 2.82788 6.21025 2.85142 6.18355 2.88025C6.15685 2.90901 6.09813 2.9514 6.05305 2.97443C6.0079 2.99737 5.96313 3.04088 5.95353 3.07106C5.94385 3.10123 5.91288 3.12589 5.8846 3.12589C5.8564 3.12589 5.8138 3.15271 5.79003 3.1855C5.76625 3.21828 5.7256 3.2451 5.69965 3.2451C5.6737 3.2451 5.60245 3.29204 5.54118 3.3494C5.47998 3.40677 5.419 3.45371 5.40565 3.45371C5.39238 3.45371 5.335 3.50705 5.27823 3.57225C5.22145 3.63744 5.1577 3.69108 5.13655 3.69145C5.11533 3.69182 5.05143 3.73571 4.99458 3.78898C4.80498 3.96637 4.74235 4.01994 4.72435 4.01994C4.70215 4.01994 3.57003 5.14368 3.57003 5.16574C3.57003 5.18615 3.46285 5.31221 3.33753 5.43909C3.2839 5.49341 3.24003 5.55323 3.24003 5.57201C3.24003 5.59086 3.18603 5.65322 3.12003 5.71073C3.05403 5.76818 3.00003 5.82763 3.00003 5.84276C3.00003 5.85795 2.96965 5.90266 2.93253 5.94207C2.81575 6.06612 2.79003 6.1024 2.79003 6.14293C2.79003 6.16461 2.76303 6.20164 2.73003 6.22526C2.69703 6.24888 2.67003 6.28002 2.67003 6.2944C2.67003 6.30878 2.62953 6.3581 2.58003 6.40407C2.53053 6.45004 2.49003 6.50606 2.49003 6.52864C2.49003 6.55121 2.46303 6.58906 2.43003 6.61268C2.39703 6.6363 2.37003 6.67653 2.37003 6.70208C2.37003 6.72764 2.34303 6.76787 2.31003 6.79149C2.27703 6.81511 2.25003 6.8569 2.25003 6.88432C2.25003 6.91166 2.22978 6.94184 2.20503 6.9513C2.18028 6.96069 2.16003 6.9957 2.16003 7.02893C2.16003 7.06224 2.14653 7.08951 2.13003 7.08951C2.11353 7.08951 2.10003 7.11335 2.10003 7.14255C2.10003 7.17168 2.07303 7.2149 2.04003 7.23851C2.00703 7.26213 1.98003 7.30534 1.98003 7.33447C1.98003 7.36368 1.96653 7.38752 1.95003 7.38752C1.93353 7.38752 1.92003 7.41136 1.92003 7.44057C1.92003 7.4697 1.89303 7.51291 1.86003 7.53653C1.82703 7.56015 1.80003 7.59665 1.80003 7.61759C1.80003 7.6386 1.78653 7.65574 1.77003 7.65574C1.75353 7.65574 1.74003 7.68256 1.74003 7.71534C1.74003 7.74812 1.72653 7.77494 1.71003 7.77494C1.69353 7.77494 1.68003 7.80176 1.68003 7.83455C1.68003 7.86733 1.66653 7.89415 1.65003 7.89415C1.63353 7.89415 1.62003 7.90979 1.62003 7.92887C1.62003 7.98445 1.5208 8.19216 1.49425 8.19216C1.4809 8.19216 1.47003 8.21228 1.47003 8.23687C1.47003 8.26145 1.45653 8.28157 1.44003 8.28157C1.42353 8.28157 1.41003 8.3218 1.41003 8.37097C1.41003 8.42015 1.39653 8.46038 1.38003 8.46038C1.36353 8.46038 1.35003 8.4872 1.35003 8.51998C1.35003 8.55276 1.33653 8.57959 1.32003 8.57959C1.30353 8.57959 1.29003 8.60641 1.29003 8.63919C1.29003 8.67197 1.27908 8.69879 1.26565 8.69879C1.25223 8.69879 1.22268 8.74573 1.20003 8.8031C1.17738 8.86047 1.14783 8.9074 1.1344 8.9074C1.12098 8.9074 1.11003 8.94764 1.11003 8.99681C1.11003 9.04598 1.09653 9.08621 1.08003 9.08621C1.06353 9.08621 1.05003 9.11192 1.05003 9.14336C1.05003 9.17472 1.0399 9.2049 1.02753 9.21041C0.995353 9.22457 0.899728 9.50567 0.899878 9.58539C0.899953 9.62227 0.886528 9.65244 0.870028 9.65244C0.853528 9.65244 0.840028 9.67926 0.840028 9.71205C0.840028 9.74483 0.826528 9.77165 0.810028 9.77165C0.793528 9.77165 0.780028 9.81188 0.780028 9.86105C0.780028 9.91023 0.766528 9.95046 0.750028 9.95046C0.733528 9.95046 0.720028 9.98399 0.720028 10.025C0.720028 10.0659 0.706528 10.0995 0.690028 10.0995C0.673528 10.0995 0.660028 10.1397 0.660028 10.1889C0.660028 10.238 0.646528 10.2783 0.630028 10.2783C0.613528 10.2783 0.600028 10.3185 0.600028 10.3677C0.600028 10.4169 0.586528 10.4571 0.570028 10.4571C0.553528 10.4571 0.540028 10.5032 0.540028 10.5596C0.540028 10.616 0.526528 10.6705 0.510028 10.6806C0.493528 10.6907 0.480028 10.7318 0.480028 10.7718C0.480028 10.8118 0.466528 10.8445 0.450028 10.8445C0.433528 10.8445 0.420028 10.8981 0.420028 10.9637C0.420028 11.0293 0.409528 11.0829 0.396703 11.0829C0.370753 11.0829 0.301753 11.4284 0.279103 11.6715C0.271078 11.7576 0.252253 11.828 0.237253 11.828C0.222253 11.828 0.210028 11.8883 0.210028 11.9621C0.210028 12.0358 0.196528 12.0962 0.180028 12.0962C0.163378 12.0962 0.150028 12.1757 0.150028 12.275C0.150028 12.3743 0.136678 12.4538 0.120028 12.4538C0.103153 12.4538 0.0900275 12.5374 0.0900275 12.645C0.0900275 12.7715 0.0773525 12.8405 0.0525275 12.8487C-0.00237246 12.8668 -0.00237246 16.4514 0.0525275 16.4696C0.0773525 16.4778 0.0900275 16.5467 0.0900275 16.6732C0.0900275 16.7808 0.103153 16.8644 0.120028 16.8644C0.136678 16.8644 0.150028 16.9439 0.150028 17.0432C0.150028 17.1426 0.163378 17.222 0.180028 17.222C0.196528 17.222 0.210028 17.2958 0.210028 17.386C0.210028 17.4761 0.221803 17.5499 0.236203 17.5499C0.250603 17.5499 0.270703 17.6136 0.280903 17.6914C0.316453 17.9628 0.375178 18.2606 0.397528 18.2826C0.409903 18.2948 0.420028 18.3428 0.420028 18.3893C0.420028 18.4357 0.433528 18.4737 0.450028 18.4737C0.466528 18.4737 0.480028 18.5207 0.480028 18.578C0.480028 18.6354 0.493528 18.6823 0.510028 18.6823C0.526528 18.6823 0.540028 18.7226 0.540028 18.7717C0.540028 18.8209 0.553528 18.8611 0.570028 18.8611C0.586528 18.8611 0.600028 18.9014 0.600028 18.9505C0.600028 18.9997 0.613528 19.0399 0.630028 19.0399C0.646528 19.0399 0.660028 19.0802 0.660028 19.1294C0.660028 19.1785 0.673528 19.2188 0.690028 19.2188C0.706528 19.2188 0.720028 19.2523 0.720028 19.2933C0.720028 19.3342 0.733528 19.3678 0.750028 19.3678C0.766528 19.3678 0.780028 19.408 0.780028 19.4572C0.780028 19.5063 0.793528 19.5466 0.810028 19.5466C0.826528 19.5466 0.840028 19.5868 0.840028 19.636C0.840028 19.6852 0.852028 19.7254 0.866653 19.7254C0.881278 19.7254 0.899953 19.7623 0.908203 19.8073C0.937528 19.9677 1.15735 20.4733 1.20738 20.4952C1.21983 20.5007 1.23003 20.5443 1.23003 20.5921C1.23003 20.6399 1.24353 20.679 1.26003 20.679C1.27653 20.679 1.29003 20.7059 1.29003 20.7386C1.29003 20.7714 1.30353 20.7982 1.32003 20.7982C1.33653 20.7982 1.35003 20.8251 1.35003 20.8578C1.35003 20.8906 1.36098 20.9174 1.3744 20.9174C1.38783 20.9174 1.41738 20.9644 1.44003 21.0218C1.46268 21.0791 1.49223 21.1261 1.50565 21.1261C1.51908 21.1261 1.53003 21.1458 1.53003 21.1699C1.53003 21.227 1.6807 21.5433 1.70793 21.5433C1.7194 21.5433 1.74738 21.5902 1.77003 21.6476C1.79268 21.705 1.82223 21.7519 1.83565 21.7519C1.84908 21.7519 1.86003 21.7757 1.86003 21.8049C1.86003 21.8341 1.88703 21.8773 1.92003 21.9009C1.95303 21.9245 1.98003 21.9677 1.98003 21.9969C1.98003 22.0261 1.99353 22.0499 2.01003 22.0499C2.02653 22.0499 2.04003 22.0718 2.04003 22.0986C2.04003 22.1253 2.06403 22.1689 2.09343 22.1954C2.12275 22.2219 2.1721 22.3006 2.203 22.3703C2.23383 22.4399 2.27058 22.4969 2.2846 22.4969C2.29855 22.4969 2.31003 22.515 2.31003 22.5372C2.31003 22.5594 2.34715 22.6166 2.39253 22.6644C2.4379 22.7122 2.49415 22.7879 2.51763 22.8327C2.54103 22.8775 2.5714 22.9142 2.58513 22.9142C2.59878 22.9142 2.61003 22.9289 2.61003 22.9469C2.61003 22.9649 2.65053 23.0172 2.70003 23.0632C2.74953 23.1091 2.79003 23.1649 2.79003 23.1872C2.79003 23.2095 2.82378 23.2638 2.86503 23.3081C2.90628 23.3522 2.94003 23.4007 2.94003 23.4159C2.94003 23.431 2.99403 23.4904 3.06003 23.5479C3.12603 23.6054 3.18003 23.6677 3.18003 23.6864C3.18003 23.7051 3.24078 23.7807 3.31503 23.8545C3.38928 23.9282 3.45003 24.0014 3.45003 24.0171C3.45003 24.0328 3.88878 24.4826 4.42503 25.0167C4.96128 25.5509 5.40003 26.0006 5.40003 26.0159C5.40003 26.1129 8.08015 28.7007 8.14855 28.6697C8.19843 28.6471 8.24433 28.6467 8.30178 28.6684C8.36118 28.6908 8.3869 28.69 8.39523 28.6653C8.40153 28.6465 8.4526 28.5887 8.50878 28.5367C8.56495 28.4848 8.7103 28.3436 8.83188 28.2227C8.95338 28.1019 9.09333 27.9628 9.14283 27.9137C9.19233 27.8645 9.33408 27.7237 9.45783 27.6008C9.58158 27.4778 9.72333 27.337 9.77283 27.2878C9.82233 27.2387 9.96415 27.0979 10.088 26.9751C10.3556 26.7095 10.3691 26.6961 10.6963 26.3711C10.8366 26.2318 10.9783 26.091 11.0113 26.0582C11.0443 26.0254 11.1842 25.8864 11.3222 25.7493C11.4603 25.6122 11.6001 25.4732 11.6331 25.4404C11.6661 25.4077 11.8079 25.2668 11.9481 25.1275C12.0884 24.9882 12.2301 24.8474 12.2631 24.8146C12.2961 24.7818 12.4379 24.641 12.5781 24.5017C12.7184 24.3624 12.8601 24.2216 12.8931 24.1888C12.9261 24.156 13.0661 24.0173 13.2041 23.8805C13.4936 23.5938 13.4442 23.6427 13.8045 23.2849C13.9587 23.1316 14.1005 22.9907 14.1195 22.972C14.1384 22.9532 14.2841 22.8084 14.4432 22.6503C14.6024 22.4922 14.7422 22.3524 14.7538 22.3397C14.7655 22.327 14.8071 22.2904 14.8464 22.2584C14.9046 22.2109 14.9142 22.1825 14.8986 22.1047C14.8832 22.0285 14.894 21.9938 14.9522 21.9327C15.082 21.7964 15.0355 21.7222 14.4963 21.2057C14.4421 21.1537 14.3139 21.0261 14.2113 20.9221C14.1089 20.8181 13.9659 20.6772 13.8938 20.6092C13.8216 20.5411 13.6798 20.4002 13.5788 20.2962C13.4777 20.1922 13.3359 20.0514 13.2638 19.9833C13.1916 19.9152 13.0498 19.7744 12.9488 19.6704C12.8477 19.5664 12.7059 19.4256 12.6338 19.3575C12.5616 19.2894 12.4198 19.1486 12.3188 19.0446C12.2177 18.9406 12.0759 18.7997 12.0038 18.7316C11.9316 18.6636 11.7898 18.5227 11.6888 18.4187C11.5877 18.3147 11.4459 18.1739 11.3738 18.1058C11.3016 18.0377 11.1598 17.897 11.0588 17.793C10.9577 17.689 10.8297 17.5616 10.7743 17.5099C10.4474 17.2042 10.3216 17.0733 10.2809 16.9959C10.2557 16.9482 10.207 16.8796 10.1726 16.8433C10.1382 16.8071 10.11 16.7665 10.11 16.753C10.11 16.7396 10.083 16.7092 10.05 16.6856C10.017 16.662 9.99003 16.6218 9.99003 16.5962C9.99003 16.5707 9.96303 16.5304 9.93003 16.5068C9.89703 16.4832 9.87003 16.44 9.87003 16.4109C9.87003 16.3816 9.85653 16.3578 9.84003 16.3578C9.82353 16.3578 9.81003 16.3359 9.81003 16.3092C9.81003 16.2824 9.7852 16.2388 9.75483 16.2123C9.72445 16.1858 9.67525 16.0865 9.6454 15.9918C9.61563 15.897 9.5797 15.8124 9.5656 15.8038C9.55158 15.7951 9.54003 15.7647 9.54003 15.7361C9.54003 15.671 9.4726 15.5239 9.44253 15.5236C9.43015 15.5234 9.42003 15.4697 9.42003 15.4042C9.42003 15.3386 9.40653 15.2849 9.39003 15.2849C9.37353 15.2849 9.36003 15.2447 9.36003 15.1955C9.36003 15.1464 9.34653 15.1061 9.33003 15.1061C9.31353 15.1061 9.30003 15.0458 9.30003 14.972C9.30003 14.8983 9.28653 14.8379 9.27003 14.8379C9.2524 14.8379 9.24003 14.7336 9.24003 14.5846C9.24003 14.4356 9.22765 14.3313 9.21003 14.3313C9.19203 14.3313 9.18003 14.2121 9.18003 14.0333C9.18003 13.8545 9.19203 13.7353 9.21003 13.7353C9.22735 13.7353 9.24003 13.6409 9.24003 13.5118C9.24003 13.3826 9.2527 13.2882 9.27003 13.2882C9.28653 13.2882 9.30003 13.2279 9.30003 13.1541C9.30003 13.0804 9.31353 13.02 9.33003 13.02C9.34653 13.02 9.36003 12.9664 9.36003 12.9008C9.36003 12.8353 9.37353 12.7816 9.39003 12.7816C9.40653 12.7816 9.42003 12.7414 9.42003 12.6922C9.42003 12.643 9.43353 12.6028 9.45003 12.6028C9.46653 12.6028 9.48003 12.5764 9.48003 12.5441C9.48003 12.5118 9.50703 12.4376 9.54003 12.3793C9.57303 12.321 9.60003 12.2467 9.60003 12.2145C9.60003 12.1822 9.61233 12.1558 9.6274 12.1558C9.64248 12.1558 9.66385 12.1021 9.67503 12.0366C9.6862 11.971 9.70758 11.9174 9.72265 11.9174C9.73773 11.9174 9.75003 11.8972 9.75003 11.8727C9.75003 11.8481 9.76353 11.828 9.78003 11.828C9.79653 11.828 9.81003 11.8041 9.81003 11.7749C9.81003 11.7458 9.83703 11.7026 9.87003 11.679C9.90303 11.6553 9.93003 11.6151 9.93003 11.5895C9.93003 11.564 9.95703 11.5238 9.99003 11.5001C10.023 11.4765 10.05 11.4387 10.05 11.4161C10.05 11.3935 10.0905 11.3375 10.14 11.2915C10.1895 11.2456 10.23 11.1994 10.23 11.1889C10.23 11.1424 10.9704 10.3975 11.0167 10.3975C11.0328 10.3975 11.0838 10.3573 11.13 10.3081C11.1763 10.2589 11.2327 10.2187 11.2554 10.2187C11.2782 10.2187 11.3163 10.1919 11.34 10.1591C11.3638 10.1263 11.4073 10.0995 11.4366 10.0995C11.466 10.0995 11.49 10.0875 11.49 10.0729C11.49 10.0583 11.5238 10.0379 11.565 10.0276C11.6063 10.0174 11.64 9.99576 11.64 9.97966C11.64 9.96365 11.667 9.95046 11.7 9.95046C11.733 9.95046 11.76 9.93705 11.76 9.92066C11.76 9.90427 11.787 9.89086 11.82 9.89086C11.853 9.89086 11.88 9.87744 11.88 9.86105C11.88 9.84466 11.907 9.83125 11.94 9.83125C11.973 9.83125 12 9.81784 12 9.80145C12 9.78506 12.0338 9.77165 12.075 9.77165C12.1163 9.77165 12.15 9.75824 12.15 9.74185C12.15 9.72546 12.177 9.71205 12.21 9.71205C12.243 9.71205 12.27 9.69864 12.27 9.68224C12.27 9.66585 12.3105 9.65244 12.36 9.65244C12.4095 9.65244 12.45 9.63903 12.45 9.62264C12.45 9.60625 12.504 9.59284 12.57 9.59284C12.636 9.59284 12.69 9.57943 12.69 9.56304C12.69 9.54665 12.7373 9.53324 12.795 9.53324C12.8528 9.53324 12.9 9.51983 12.9 9.50343C12.9 9.48704 12.9664 9.47363 13.0476 9.47363C13.132 9.47363 13.2 9.45896 13.2066 9.43936C13.2225 9.39168 14.6178 9.39265 14.6339 9.4404C14.64 9.45866 14.7047 9.47363 14.7775 9.47363C14.8504 9.47363 14.91 9.48704 14.91 9.50343C14.91 9.51983 14.964 9.53324 15.03 9.53324C15.096 9.53324 15.15 9.54665 15.15 9.56304C15.15 9.57943 15.1905 9.59284 15.24 9.59284C15.2895 9.59284 15.33 9.60625 15.33 9.62264C15.33 9.63903 15.3638 9.65244 15.405 9.65244C15.4463 9.65244 15.48 9.66585 15.48 9.68224C15.48 9.69864 15.5205 9.71205 15.57 9.71205C15.6195 9.71205 15.66 9.72546 15.66 9.74185C15.66 9.75824 15.687 9.77165 15.72 9.77165C15.753 9.77165 15.78 9.78506 15.78 9.80145C15.78 9.81784 15.8059 9.83125 15.8376 9.83125C15.8691 9.83125 15.8995 9.84183 15.9051 9.85472C15.9186 9.88661 16.2405 10.0399 16.2939 10.0399C16.3175 10.0399 16.3563 10.0667 16.38 10.0995C16.4038 10.1322 16.4439 10.1592 16.4691 10.1594C16.4944 10.1595 16.5469 10.1997 16.5859 10.2488C16.6249 10.2978 16.6688 10.3379 16.6834 10.3379C16.698 10.3379 16.7656 10.3915 16.8336 10.4571C16.9017 10.5226 16.9754 10.5763 16.9976 10.5763C17.0198 10.5763 17.0688 10.61 17.1065 10.6513C17.1442 10.6926 17.2189 10.7726 17.2725 10.8292C17.3262 10.8856 17.37 10.9442 17.37 10.9591C17.37 10.9741 17.4207 11.0349 17.4825 11.0945C17.5444 11.1539 17.6423 11.2496 17.7 11.3071C17.7578 11.3645 17.9045 11.5103 18.0261 11.6311C18.1477 11.7518 18.2877 11.8908 18.3372 11.94C18.3867 11.9892 18.5285 12.13 18.6522 12.2529C18.776 12.3759 18.9177 12.5167 18.9672 12.5658C19.0167 12.615 19.1585 12.7558 19.2822 12.8788C19.406 13.0017 19.5477 13.1425 19.5972 13.1917C19.6467 13.2409 19.7885 13.3817 19.9122 13.5046C20.1774 13.768 20.2536 13.8437 20.5085 14.0968C20.7155 14.3022 20.8335 14.4194 21.1347 14.7187C21.2419 14.8253 21.3889 14.9682 21.4614 15.0364C21.534 15.1046 21.5991 15.1777 21.6061 15.1987C21.6166 15.23 21.6362 15.23 21.7118 15.199C21.7813 15.1704 21.8202 15.169 21.8668 15.1938C21.9229 15.2236 21.972 15.1836 22.3656 14.7865C22.6058 14.5444 22.8119 14.3367 22.8237 14.325C22.8354 14.3133 24.1242 13.0362 25.6875 11.4868C27.2509 9.9375 28.53 8.65565 28.53 8.63837C28.53 8.5956 28.4871 8.54583 28.2655 8.33111C28.1613 8.23009 28.0195 8.09002 27.9505 8.01984C27.8815 7.94958 27.7394 7.80877 27.6347 7.70692C27.53 7.605 27.3747 7.44988 27.2897 7.36219C27.2046 7.27442 27.0756 7.14702 27.0028 7.07907C26.9301 7.01105 26.7271 6.81123 26.5518 6.63503C26.3763 6.45883 26.2131 6.31407 26.1889 6.31332C26.1648 6.3125 26.0978 6.25826 26.04 6.19263C25.9823 6.12699 25.8507 5.99012 25.7477 5.8885C25.6446 5.78688 25.5029 5.64629 25.4327 5.57611C25.3625 5.50592 25.2194 5.36511 25.1147 5.26319C25.01 5.16127 24.8547 5.00645 24.7697 4.91905C24.6846 4.83174 24.5571 4.70433 24.4864 4.63594C24.4157 4.56762 24.2598 4.41444 24.1399 4.2956C24.0201 4.17677 23.9121 4.07954 23.9 4.07954C23.8879 4.07954 23.8313 4.03596 23.7742 3.98269C23.4985 3.7255 23.4605 3.69212 23.4435 3.69212C23.4336 3.69212 23.3735 3.63848 23.31 3.57292C23.2466 3.50735 23.1795 3.45371 23.161 3.45371C23.1425 3.45371 23.0922 3.41877 23.0492 3.37608C23.0062 3.33339 22.9332 3.28533 22.8867 3.26931C22.8404 3.25322 22.7943 3.2144 22.7842 3.18304C22.7742 3.1516 22.7453 3.12589 22.7201 3.12589C22.6948 3.12589 22.6363 3.08566 22.59 3.03649C22.5438 2.98731 22.4874 2.94708 22.4646 2.94708C22.4419 2.94708 22.4038 2.92026 22.38 2.88748C22.3563 2.8547 22.316 2.82788 22.2906 2.82788C22.2652 2.82788 22.2276 2.80105 22.207 2.76827C22.1864 2.73549 22.1511 2.70867 22.1285 2.70867C22.1058 2.70867 22.0706 2.68855 22.05 2.66397C22.0295 2.63938 21.9873 2.61926 21.9564 2.61926C21.9254 2.61926 21.9 2.60585 21.9 2.58946C21.9 2.57307 21.876 2.55966 21.8466 2.55966C21.8173 2.55966 21.7738 2.53284 21.75 2.50006C21.7263 2.46728 21.6828 2.44046 21.6534 2.44046C21.624 2.44046 21.6 2.42704 21.6 2.41065C21.6 2.39426 21.5828 2.38085 21.5616 2.38085C21.5406 2.38085 21.5038 2.35403 21.48 2.32125C21.4563 2.28847 21.4128 2.26165 21.3834 2.26165C21.354 2.26165 21.33 2.24823 21.33 2.23184C21.33 2.21545 21.303 2.20204 21.27 2.20204C21.237 2.20204 21.21 2.18863 21.21 2.17224C21.21 2.15585 21.183 2.14244 21.15 2.14244C21.117 2.14244 21.09 2.12903 21.09 2.11264C21.09 2.09625 21.063 2.08284 21.03 2.08284C20.997 2.08284 20.97 2.07002 20.97 2.05438C20.97 2.03873 20.9228 2.01712 20.865 2.00639C20.8073 1.99559 20.76 1.97488 20.76 1.96028C20.76 1.94575 20.733 1.93383 20.7 1.93383C20.667 1.93383 20.64 1.92042 20.64 1.90403C20.64 1.88764 20.613 1.87422 20.58 1.87422C20.547 1.87422 20.52 1.86081 20.52 1.84442C20.52 1.82803 20.493 1.81462 20.46 1.81462C20.427 1.81462 20.4 1.80121 20.4 1.78482C20.4 1.76843 20.3798 1.75502 20.355 1.75502C20.3303 1.75502 20.31 1.74161 20.31 1.72522C20.31 1.70883 20.283 1.69542 20.25 1.69542C20.217 1.69542 20.19 1.682 20.19 1.66561C20.19 1.64922 20.163 1.63581 20.13 1.63581C20.097 1.63581 20.07 1.6224 20.07 1.60601C20.07 1.58962 20.0295 1.57621 19.98 1.57621C19.9305 1.57621 19.89 1.5628 19.89 1.54641C19.89 1.53002 19.863 1.51661 19.83 1.51661C19.797 1.51661 19.77 1.50565 19.77 1.49224C19.77 1.46281 19.4759 1.3676 19.3849 1.3676C19.3492 1.3676 19.32 1.35419 19.32 1.3378C19.32 1.3214 19.293 1.30799 19.26 1.30799C19.227 1.30799 19.2 1.29458 19.2 1.27819C19.2 1.2618 19.1671 1.24839 19.1268 1.24839C19.0866 1.24839 19.0452 1.23498 19.035 1.21859C19.0248 1.2022 18.9835 1.18879 18.9432 1.18879C18.903 1.18879 18.87 1.17538 18.87 1.15899C18.87 1.1426 18.8295 1.12918 18.78 1.12918C18.7305 1.12918 18.69 1.11577 18.69 1.09938C18.69 1.08299 18.6495 1.06958 18.6 1.06958C18.5505 1.06958 18.51 1.05617 18.51 1.03978C18.51 1.02339 18.4628 1.00998 18.405 1.00998C18.3473 1.00998 18.3 0.996568 18.3 0.980177C18.3 0.963786 18.2595 0.950375 18.21 0.950375C18.1605 0.950375 18.12 0.936964 18.12 0.920573C18.12 0.904183 18.066 0.890772 18 0.890772C17.934 0.890772 17.88 0.880341 17.88 0.867601C17.88 0.843387 17.5486 0.776334 17.3025 0.750779C17.2242 0.742658 17.16 0.723883 17.16 0.709057C17.16 0.694305 17.0925 0.682161 17.01 0.682161C16.9275 0.682161 16.86 0.66875 16.86 0.652359C16.86 0.635968 16.7866 0.622557 16.6968 0.622557C16.6071 0.622557 16.5252 0.609147 16.515 0.592756C16.5048 0.576365 16.4106 0.562954 16.3058 0.562954C16.1846 0.562954 16.1107 0.549991 16.1031 0.527341C16.0912 0.492026 13.3551 0.464981 12.7125 0.493889Z" fill="#6A35F5"/>
<path fill-rule="evenodd" clip-rule="evenodd" d="M21.684 15.2179C21.6394 15.2239 21.5949 15.2516 21.5853 15.2793C21.5755 15.3069 21.5135 15.3765 21.4473 15.4339C21.3812 15.4912 21.2399 15.6253 21.1334 15.7319C21.0269 15.8384 20.8875 15.9775 20.8236 16.041C20.7597 16.1045 20.6196 16.2436 20.5124 16.3501C20.4051 16.4567 20.2634 16.5975 20.1974 16.663C20.1314 16.7286 19.9896 16.8694 19.8824 16.976C19.7751 17.0825 19.6313 17.225 19.5627 17.2927C19.4942 17.3603 19.3542 17.5008 19.2516 17.6048C19.149 17.7088 19.0059 17.8496 18.9338 17.9177C18.8616 17.9858 18.7198 18.1266 18.6188 18.2306C18.5177 18.3346 18.3759 18.4754 18.3038 18.5435C18.2316 18.6116 18.0898 18.7524 17.9888 18.8564C17.8877 18.9604 17.7459 19.1012 17.6738 19.1693C17.6016 19.2374 17.4598 19.3779 17.3588 19.4814C17.2577 19.5849 17.131 19.7123 17.0772 19.7645C17.0233 19.8167 16.8933 19.9449 16.7883 20.0493C16.6833 20.1538 16.5434 20.2929 16.4774 20.3584C16.4114 20.424 16.2696 20.5648 16.1624 20.6713C16.0551 20.7779 15.9151 20.917 15.8512 20.9805C15.6693 21.1611 15.344 21.4852 15.1953 21.6338C15.1209 21.7081 15.06 21.7926 15.06 21.8212C15.06 21.85 15.033 21.9023 15 21.9375C14.9168 22.0263 14.9234 22.152 15.0157 22.235C15.0573 22.2725 15.1485 22.3602 15.2182 22.43C15.4228 22.6347 15.7122 22.922 15.811 23.0184C15.8613 23.0675 16.0028 23.2084 16.1253 23.3313C16.2477 23.4542 16.3923 23.5975 16.4465 23.6497C16.5007 23.7019 16.629 23.8293 16.7316 23.9328C16.8341 24.0363 16.9758 24.1771 17.0466 24.2457C17.1172 24.3142 17.259 24.455 17.3616 24.5586C17.4641 24.6621 17.6058 24.803 17.6766 24.8715C17.7472 24.94 17.889 25.0809 17.9916 25.1844C18.0942 25.288 18.2342 25.428 18.3027 25.4957C18.3713 25.5633 18.5151 25.7059 18.6224 25.8124C18.7296 25.919 18.8714 26.0598 18.9374 26.1253C19.0034 26.1909 19.1428 26.33 19.2472 26.4344C19.3516 26.5389 19.4911 26.6713 19.5572 26.7287C19.6233 26.786 19.6779 26.8536 19.6787 26.8789C19.6794 26.9042 19.7273 26.9746 19.785 27.0355C19.8428 27.0963 19.89 27.1565 19.89 27.1692C19.89 27.1819 19.917 27.2117 19.95 27.2353C19.983 27.2589 20.01 27.2991 20.01 27.3247C20.01 27.3502 20.037 27.3905 20.07 27.4141C20.103 27.4377 20.13 27.4809 20.13 27.5101C20.13 27.5393 20.1435 27.5631 20.16 27.5631C20.1765 27.5631 20.19 27.5888 20.19 27.6203C20.19 27.6516 20.2007 27.6818 20.2137 27.6873C20.2458 27.7007 20.4 28.0304 20.4 28.0855C20.4 28.1096 20.4135 28.1293 20.43 28.1293C20.4465 28.1293 20.46 28.162 20.46 28.2021C20.46 28.2421 20.4735 28.2831 20.49 28.2932C20.5065 28.3034 20.52 28.3444 20.52 28.3844C20.52 28.4244 20.5335 28.4572 20.55 28.4572C20.5665 28.4572 20.58 28.4974 20.58 28.5466C20.58 28.5957 20.5935 28.636 20.61 28.636C20.6265 28.636 20.64 28.6896 20.64 28.7552C20.64 28.8207 20.6535 28.8744 20.67 28.8744C20.6865 28.8744 20.7 28.9347 20.7 29.0085C20.7 29.0822 20.7135 29.1426 20.73 29.1426C20.7474 29.1426 20.76 29.2364 20.76 29.3643C20.76 29.4863 20.7735 29.5944 20.79 29.6045C20.8066 29.6147 20.82 29.7488 20.82 29.9043C20.82 30.072 20.8079 30.1856 20.79 30.1856C20.7727 30.1856 20.76 30.28 20.76 30.4092C20.76 30.5383 20.7474 30.6327 20.73 30.6327C20.7135 30.6327 20.7 30.6997 20.7 30.7817C20.7 30.8636 20.6865 30.9307 20.67 30.9307C20.6535 30.9307 20.64 30.9776 20.64 31.035C20.64 31.0924 20.6265 31.1393 20.61 31.1393C20.5935 31.1393 20.58 31.1795 20.58 31.2287C20.58 31.2779 20.5665 31.3181 20.55 31.3181C20.5335 31.3181 20.52 31.3583 20.52 31.4075C20.52 31.4567 20.5065 31.4969 20.49 31.4969C20.4735 31.4969 20.46 31.5304 20.46 31.5714C20.46 31.6124 20.4465 31.6459 20.43 31.6459C20.4135 31.6459 20.4 31.6645 20.4 31.6872C20.4 31.7099 20.3799 31.7669 20.3552 31.8139C20.3306 31.8608 20.3103 31.9227 20.3102 31.9514C20.3101 31.9801 20.2965 32.0035 20.28 32.0035C20.2635 32.0035 20.25 32.0304 20.25 32.0631C20.25 32.0959 20.2365 32.1227 20.22 32.1227C20.2035 32.1227 20.19 32.1399 20.19 32.1609C20.19 32.1818 20.163 32.2183 20.13 32.242C20.097 32.2656 20.07 32.3058 20.07 32.3314C20.07 32.3569 20.043 32.3971 20.01 32.4208C19.977 32.4444 19.95 32.4846 19.95 32.5102C19.95 32.5357 19.923 32.576 19.89 32.5996C19.857 32.6232 19.83 32.6585 19.83 32.678C19.83 32.6975 19.7423 32.8016 19.635 32.9091C19.5278 33.0167 19.44 33.1252 19.44 33.1502C19.44 33.1752 19.4188 33.1956 19.3929 33.1956C19.367 33.1956 19.2585 33.2828 19.1517 33.3893C19.045 33.4959 18.9409 33.583 18.9205 33.583C18.9 33.583 18.8638 33.6098 18.84 33.6426C18.8163 33.6754 18.7777 33.7022 18.7545 33.7022C18.7311 33.7022 18.6903 33.7258 18.6636 33.7546C18.6369 33.7834 18.5779 33.8259 18.5325 33.849C18.4872 33.8722 18.45 33.9023 18.45 33.9159C18.45 33.9295 18.4365 33.9406 18.4199 33.9406C18.4033 33.9406 18.3198 33.9742 18.2343 34.0151C18.1488 34.0561 18.0611 34.0897 18.0394 34.0897C18.0177 34.0897 18 34.1031 18 34.1195C18 34.1358 17.973 34.1493 17.94 34.1493C17.907 34.1493 17.88 34.1627 17.88 34.1791C17.88 34.1954 17.8463 34.2089 17.805 34.2089C17.7638 34.2089 17.73 34.2223 17.73 34.2387C17.73 34.2551 17.6895 34.2685 17.64 34.2685C17.5905 34.2685 17.55 34.2819 17.55 34.2983C17.55 34.3147 17.5095 34.3281 17.46 34.3281C17.4105 34.3281 17.37 34.3415 17.37 34.3579C17.37 34.3743 17.3228 34.3877 17.265 34.3877C17.2073 34.3877 17.16 34.4011 17.16 34.4175C17.16 34.4339 17.0925 34.4473 17.01 34.4473C16.9275 34.4473 16.86 34.4607 16.86 34.4771C16.86 34.4943 16.765 34.5069 16.635 34.5069C16.5051 34.5069 16.41 34.5195 16.41 34.5367C16.41 34.5546 16.285 34.5665 16.095 34.5665C15.9051 34.5665 15.78 34.5546 15.78 34.5367C15.78 34.5193 15.6801 34.5069 15.54 34.5069C15.4 34.5069 15.3 34.4944 15.3 34.4771C15.3 34.4607 15.2393 34.4473 15.165 34.4473C15.0908 34.4473 15.03 34.4339 15.03 34.4175C15.03 34.4011 14.9895 34.3877 14.94 34.3877C14.8905 34.3877 14.85 34.3743 14.85 34.3579C14.85 34.3415 14.8028 34.3281 14.745 34.3281C14.6873 34.3281 14.64 34.3147 14.64 34.2983C14.64 34.2819 14.5995 34.2685 14.55 34.2685C14.5005 34.2685 14.46 34.2551 14.46 34.2387C14.46 34.2223 14.433 34.2089 14.4 34.2089C14.367 34.2089 14.34 34.1954 14.34 34.1791C14.34 34.1627 14.313 34.1493 14.28 34.1493C14.247 34.1493 14.22 34.1358 14.22 34.1195C14.22 34.1031 14.1951 34.0897 14.1646 34.0897C14.1011 34.0897 13.9297 34.0101 13.9038 33.9686C13.8943 33.9532 13.8603 33.9406 13.8282 33.9406C13.7962 33.9406 13.77 33.9272 13.77 33.9108C13.77 33.8945 13.746 33.881 13.7166 33.881C13.6873 33.881 13.6438 33.8542 13.62 33.8214C13.5963 33.7887 13.556 33.7618 13.5306 33.7618C13.5052 33.7618 13.4676 33.735 13.447 33.7022C13.4264 33.6694 13.3962 33.6426 13.3798 33.6426C13.3635 33.6426 13.2945 33.589 13.2264 33.5234C13.1584 33.4579 13.0845 33.4042 13.0623 33.4042C13.04 33.4042 12.9775 33.3571 12.9234 33.2996C12.8693 33.2421 12.7677 33.1352 12.6975 33.062C12.6274 32.9889 12.57 32.919 12.57 32.9068C12.57 32.8945 12.4887 32.8036 12.3894 32.7048C12.2901 32.606 12.1215 32.4379 12.0146 32.3314C11.9078 32.2248 11.7663 32.084 11.7003 32.0184C11.6343 31.9529 11.4927 31.8121 11.3854 31.7055C11.2782 31.599 11.133 31.4548 11.0628 31.3852C10.9925 31.3156 10.8653 31.1882 10.78 31.1021C10.6947 31.016 10.553 30.8756 10.465 30.79C10.377 30.7045 10.2342 30.5637 10.1476 30.4771C10.0611 30.3906 9.91931 30.2494 9.83261 30.1634C9.74598 30.0774 9.60423 29.9366 9.51761 29.8505C9.43106 29.7644 9.28931 29.6236 9.20261 29.5375C9.11598 29.4516 8.97461 29.3107 8.88858 29.2246C8.80248 29.1386 8.66486 29.0077 8.58258 28.934C8.50038 28.8602 8.42516 28.7779 8.41556 28.7509C8.39651 28.6977 8.22108 28.6573 8.17886 28.6965C8.16446 28.7098 8.13438 28.7137 8.11188 28.7052C8.08871 28.6963 8.01918 28.7456 7.95093 28.8192C7.88486 28.8905 7.80521 28.9739 7.77386 29.0045C7.68701 29.0892 7.20573 29.5676 7.14693 29.6277C7.11836 29.6568 6.98028 29.7938 6.84003 29.932C6.69978 30.0702 6.55413 30.214 6.51633 30.2515C6.47853 30.2891 6.33378 30.4337 6.19466 30.5731C6.05553 30.7124 5.91378 30.8532 5.87966 30.886C5.84553 30.9188 5.70348 31.0596 5.56398 31.1989C5.42448 31.3382 5.29653 31.4656 5.27966 31.482C5.26278 31.4984 5.12433 31.6356 4.97201 31.787C4.81968 31.9383 4.67793 32.0791 4.65701 32.0999C4.63608 32.1207 4.49433 32.2615 4.34201 32.4128C4.18968 32.5641 4.04793 32.7049 4.02701 32.7257C4.00608 32.7465 3.86073 32.8909 3.70398 33.0466C3.54723 33.2023 3.40488 33.3431 3.38763 33.3595C3.37046 33.3759 3.22893 33.5167 3.07323 33.6724C2.91746 33.8281 2.77796 33.967 2.76318 33.981C2.74833 33.995 2.61986 34.1224 2.47751 34.2641C2.16356 34.5768 2.16168 34.5786 1.84323 34.8943C1.47093 35.2632 1.47003 35.2643 1.47003 35.3199C1.47003 35.3722 1.75976 35.6989 1.80626 35.6989C1.83408 35.6989 1.92288 35.7746 2.07813 35.9303C2.13146 35.9838 2.27448 36.1264 2.39613 36.2471C2.65916 36.5083 2.72816 36.5769 2.98451 36.8314C3.09183 36.9379 3.23711 37.0811 3.30731 37.1494C3.37758 37.2178 3.50463 37.3452 3.58968 37.4325C3.78716 37.6354 4.13771 37.9639 4.15676 37.9639C4.17048 37.9639 4.39593 38.1738 4.59723 38.3739C4.64673 38.4231 4.78848 38.5639 4.91223 38.6868C5.03598 38.8098 5.17773 38.9506 5.22723 38.9998C5.27673 39.0489 5.41668 39.188 5.53818 39.3088C5.65976 39.4296 5.80323 39.5708 5.85708 39.6228C5.91093 39.6746 6.00641 39.7718 6.06926 39.8388C6.13203 39.9057 6.19661 39.9606 6.21273 39.9606C6.22886 39.9606 6.28863 40.0041 6.34548 40.0574C6.53613 40.2358 6.59778 40.2884 6.61631 40.2884C6.62643 40.2884 6.68658 40.342 6.75003 40.4076C6.81348 40.4731 6.88121 40.5268 6.90063 40.5268C6.92006 40.5268 6.97376 40.567 7.02003 40.6162C7.06631 40.6654 7.12383 40.7056 7.14783 40.7056C7.17191 40.7056 7.21698 40.7391 7.24796 40.7801C7.27893 40.8211 7.32506 40.8546 7.35056 40.8546C7.37598 40.8546 7.41626 40.8814 7.44003 40.9142C7.46381 40.947 7.50431 40.9738 7.53003 40.9738C7.55576 40.9738 7.59626 41.0006 7.62003 41.0334C7.64381 41.0662 7.68431 41.093 7.71003 41.093C7.73576 41.093 7.77626 41.1198 7.80003 41.1526C7.82381 41.1854 7.86056 41.2122 7.88163 41.2122C7.90278 41.2122 7.92003 41.2247 7.92003 41.2399C7.92003 41.2551 7.97403 41.2912 8.04003 41.3201C8.10603 41.349 8.16003 41.3835 8.16003 41.3968C8.16003 41.41 8.18703 41.4208 8.22003 41.4208C8.25303 41.4208 8.28003 41.4342 8.28003 41.4506C8.28003 41.467 8.30403 41.4804 8.33343 41.4804C8.36276 41.4804 8.40626 41.5073 8.43003 41.54C8.45381 41.5728 8.49056 41.5996 8.51163 41.5996C8.53278 41.5996 8.55003 41.6131 8.55003 41.6295C8.55003 41.6458 8.57703 41.6592 8.61003 41.6592C8.64303 41.6592 8.67003 41.6727 8.67003 41.6891C8.67003 41.7054 8.69403 41.7189 8.72343 41.7189C8.75276 41.7189 8.79626 41.7457 8.82003 41.7785C8.84381 41.8112 8.88731 41.8381 8.91663 41.8381C8.94603 41.8381 8.97003 41.8515 8.97003 41.8679C8.97003 41.8843 8.99703 41.8977 9.03003 41.8977C9.06303 41.8977 9.09003 41.9105 9.09003 41.9261C9.09003 41.9418 9.13728 41.9634 9.19503 41.9741C9.25278 41.9849 9.30003 42.0056 9.30003 42.0202C9.30003 42.0348 9.32703 42.0467 9.36003 42.0467C9.39303 42.0467 9.42003 42.0601 9.42003 42.0765C9.42003 42.0929 9.44703 42.1063 9.48003 42.1063C9.51303 42.1063 9.54003 42.1197 9.54003 42.1361C9.54003 42.1525 9.56703 42.1659 9.60003 42.1659C9.63303 42.1659 9.66003 42.1793 9.66003 42.1957C9.66003 42.2121 9.69378 42.2255 9.73503 42.2255C9.77628 42.2255 9.81003 42.2389 9.81003 42.2553C9.81003 42.2717 9.83703 42.2851 9.87003 42.2851C9.90303 42.2851 9.93003 42.2985 9.93003 42.3149C9.93003 42.3313 9.95703 42.3447 9.99003 42.3447C10.023 42.3447 10.05 42.3581 10.05 42.3745C10.05 42.3909 10.0905 42.4043 10.14 42.4043C10.1895 42.4043 10.2301 42.4143 10.2303 42.4266C10.2306 42.4526 10.3751 42.5235 10.4276 42.5235C10.4472 42.5235 10.5018 42.5435 10.5491 42.568C10.5963 42.5925 10.6722 42.6126 10.7175 42.6128C10.7629 42.6128 10.8 42.6263 10.8 42.6427C10.8 42.6591 10.8338 42.6725 10.875 42.6725C10.9163 42.6725 10.95 42.6859 10.95 42.7023C10.95 42.7187 10.9905 42.7321 11.04 42.7321C11.0895 42.7321 11.13 42.7455 11.13 42.7619C11.13 42.7783 11.1705 42.7917 11.22 42.7917C11.2695 42.7917 11.31 42.8051 11.31 42.8215C11.31 42.8379 11.3505 42.8513 11.4 42.8513C11.4495 42.8513 11.49 42.8647 11.49 42.8811C11.49 42.8975 11.523 42.9109 11.5632 42.9109C11.6035 42.9109 11.6448 42.9243 11.655 42.9407C11.6652 42.9571 11.7201 42.9705 11.7768 42.9705C11.8336 42.9705 11.88 42.9839 11.88 43.0003C11.88 43.0167 11.9205 43.0301 11.97 43.0301C12.0195 43.0301 12.06 43.0435 12.06 43.0599C12.06 43.0763 12.1065 43.0897 12.1632 43.0897C12.22 43.0897 12.2748 43.1031 12.285 43.1195C12.2952 43.1359 12.3636 43.1493 12.4368 43.1493C12.5101 43.1493 12.57 43.1615 12.57 43.1764C12.57 43.1913 12.6848 43.2131 12.825 43.2247C12.9653 43.2363 13.08 43.2576 13.08 43.272C13.08 43.2865 13.161 43.2983 13.26 43.2983C13.36 43.2983 13.44 43.3116 13.44 43.3281C13.44 43.345 13.525 43.3579 13.635 43.3579C13.7451 43.3579 13.83 43.3709 13.83 43.3877C13.83 43.4053 13.9342 43.4175 14.0826 43.4175C14.2456 43.4175 14.3391 43.4296 14.3465 43.4517C14.3631 43.5011 17.0768 43.5017 17.0934 43.4523C17.101 43.4295 17.1919 43.4175 17.3575 43.4175C17.5059 43.4175 17.61 43.4053 17.61 43.3877C17.61 43.3709 17.695 43.3579 17.805 43.3579C17.9151 43.3579 18 43.345 18 43.3281C18 43.3116 18.0801 43.2983 18.18 43.2983C18.279 43.2983 18.36 43.2873 18.36 43.2737C18.36 43.2603 18.4849 43.2332 18.6375 43.2137C19.0712 43.1583 19.14 43.1449 19.14 43.1164C19.14 43.1017 19.194 43.0897 19.26 43.0897C19.326 43.0897 19.38 43.0763 19.38 43.0599C19.38 43.0435 19.4265 43.0301 19.4832 43.0301C19.54 43.0301 19.5948 43.0167 19.605 43.0003C19.6152 42.9839 19.6566 42.9705 19.6968 42.9705C19.7371 42.9705 19.77 42.9571 19.77 42.9407C19.77 42.9243 19.824 42.9109 19.89 42.9109C19.956 42.9109 20.01 42.8975 20.01 42.8811C20.01 42.8647 20.0505 42.8513 20.1 42.8513C20.1495 42.8513 20.19 42.8379 20.19 42.8215C20.19 42.8051 20.2238 42.7917 20.265 42.7917C20.3063 42.7917 20.34 42.7783 20.34 42.7619C20.34 42.7455 20.3805 42.7321 20.43 42.7321C20.4795 42.7321 20.52 42.7187 20.52 42.7023C20.52 42.6859 20.547 42.6725 20.58 42.6725C20.613 42.6725 20.64 42.6608 20.64 42.6466C20.64 42.6323 20.707 42.6118 20.7888 42.601C20.8707 42.5902 20.9457 42.5683 20.9556 42.5524C20.9655 42.5365 20.9998 42.5235 21.0318 42.5235C21.0639 42.5235 21.09 42.5101 21.09 42.4937C21.09 42.4773 21.123 42.4639 21.1632 42.4639C21.2035 42.4639 21.2448 42.4505 21.255 42.4341C21.2652 42.4177 21.2998 42.4043 21.3318 42.4043C21.3639 42.4043 21.39 42.3909 21.39 42.3745C21.39 42.3581 21.417 42.3447 21.45 42.3447C21.483 42.3447 21.51 42.3313 21.51 42.3149C21.51 42.2985 21.5438 42.2851 21.585 42.2851C21.6263 42.2851 21.66 42.2717 21.66 42.2553C21.66 42.2389 21.687 42.2255 21.72 42.2255C21.753 42.2255 21.78 42.2121 21.78 42.1957C21.78 42.1793 21.807 42.1659 21.84 42.1659C21.873 42.1659 21.9 42.1525 21.9 42.1361C21.9 42.1197 21.927 42.1063 21.96 42.1063C21.993 42.1063 22.02 42.0929 22.02 42.0765C22.02 42.0601 22.047 42.0467 22.08 42.0467C22.113 42.0467 22.14 42.0333 22.14 42.0169C22.14 42.0005 22.1561 41.9871 22.1757 41.9871C22.2327 41.9871 22.77 41.7144 22.77 41.6855C22.77 41.671 22.7903 41.6592 22.815 41.6592C22.8398 41.6592 22.86 41.6458 22.86 41.6295C22.86 41.6131 22.884 41.5996 22.9134 41.5996C22.9428 41.5996 22.9863 41.5728 23.01 41.54C23.0338 41.5073 23.0773 41.4804 23.1066 41.4804C23.136 41.4804 23.16 41.467 23.16 41.4506C23.16 41.4342 23.187 41.4208 23.22 41.4208C23.253 41.4208 23.28 41.4083 23.28 41.393C23.28 41.3778 23.3104 41.3557 23.3475 41.3441C23.3847 41.3324 23.4369 41.298 23.4636 41.2676C23.4903 41.2371 23.5341 41.2122 23.5611 41.2122C23.588 41.2122 23.61 41.1988 23.61 41.1824C23.61 41.166 23.6316 41.1526 23.658 41.1526C23.6844 41.1526 23.7438 41.1124 23.79 41.0632C23.8363 41.014 23.8927 40.9738 23.9154 40.9738C23.9382 40.9738 23.9763 40.947 24 40.9142C24.0238 40.8814 24.0544 40.8546 24.068 40.8546C24.0816 40.8546 24.1265 40.8211 24.1677 40.7801C24.209 40.7391 24.2604 40.7056 24.282 40.7056C24.3035 40.7056 24.3635 40.6654 24.4153 40.6162C24.4671 40.567 24.5215 40.5268 24.5361 40.5268C24.5508 40.5268 24.6102 40.4731 24.668 40.4076C24.7259 40.342 24.7887 40.2884 24.8077 40.2884C24.8415 40.2884 24.8864 40.2522 25.0946 40.0574C25.1514 40.0041 25.2054 39.9606 25.2145 39.9606C25.2303 39.9606 25.5474 39.661 25.8112 39.3968C25.8793 39.3286 26.0599 39.1489 26.2125 38.9976C26.3652 38.8462 26.49 38.712 26.49 38.6994C26.49 38.6709 26.5311 38.6214 26.6925 38.4546C26.7627 38.3823 26.82 38.3149 26.82 38.305C26.82 38.2951 26.874 38.2355 26.94 38.1725C27.006 38.1094 27.06 38.0428 27.06 38.0244C27.06 38.006 27.0938 37.9574 27.135 37.9165C27.1763 37.8755 27.2102 37.8191 27.2103 37.7912C27.2105 37.7632 27.251 37.7087 27.3003 37.6699C27.3497 37.6312 27.39 37.5839 27.39 37.5647C27.39 37.5457 27.417 37.5106 27.45 37.487C27.483 37.4634 27.51 37.4232 27.51 37.3976C27.51 37.3721 27.537 37.3318 27.57 37.3082C27.603 37.2846 27.63 37.2444 27.63 37.2188C27.63 37.1933 27.657 37.153 27.69 37.1294C27.723 37.1058 27.75 37.0709 27.75 37.052C27.75 37.033 27.7703 37.0008 27.795 36.9804C27.8198 36.96 27.84 36.9211 27.84 36.8939C27.84 36.8668 27.867 36.8252 27.9 36.8016C27.933 36.778 27.96 36.7348 27.96 36.7056C27.96 36.6764 27.9735 36.6526 27.99 36.6526C28.0065 36.6526 28.02 36.6307 28.02 36.6039C28.02 36.5772 28.0447 36.5336 28.0748 36.5071C28.1049 36.4806 28.1487 36.4153 28.1721 36.362C28.1955 36.3088 28.2249 36.2652 28.2374 36.2652C28.2498 36.2652 28.26 36.2383 28.26 36.2056C28.26 36.1728 28.2735 36.146 28.29 36.146C28.3065 36.146 28.32 36.1252 28.32 36.1C28.32 36.0747 28.3464 36.026 28.3785 35.9917C28.4107 35.9574 28.4455 35.8909 28.4559 35.8439C28.4663 35.797 28.4872 35.7585 28.5024 35.7585C28.5176 35.7585 28.53 35.7317 28.53 35.6989C28.53 35.6662 28.5435 35.6393 28.56 35.6393C28.5765 35.6393 28.59 35.6125 28.59 35.5797C28.59 35.5469 28.6035 35.5201 28.62 35.5201C28.6365 35.5201 28.65 35.4933 28.65 35.4605C28.65 35.4277 28.6635 35.4009 28.68 35.4009C28.6965 35.4009 28.71 35.3607 28.71 35.3115C28.71 35.2623 28.7235 35.2221 28.74 35.2221C28.7565 35.2221 28.77 35.202 28.77 35.1774C28.77 35.1528 28.7835 35.1327 28.8 35.1327C28.8165 35.1327 28.83 35.1059 28.83 35.0731C28.83 35.0403 28.8435 35.0135 28.86 35.0135C28.8765 35.0135 28.89 34.9867 28.89 34.9539C28.89 34.9211 28.9035 34.8943 28.92 34.8943C28.9365 34.8943 28.95 34.8541 28.95 34.8049C28.95 34.7557 28.9635 34.7155 28.98 34.7155C28.9965 34.7155 29.01 34.6887 29.01 34.6559C29.01 34.6231 29.022 34.5963 29.0367 34.5963C29.0513 34.5963 29.0724 34.5359 29.0835 34.4622C29.0946 34.3884 29.1164 34.3281 29.1319 34.3281C29.1474 34.3281 29.16 34.2878 29.16 34.2387C29.16 34.1895 29.1735 34.1493 29.19 34.1493C29.2065 34.1493 29.22 34.109 29.22 34.0598C29.22 34.0107 29.2335 33.9704 29.25 33.9704C29.2665 33.9704 29.28 33.9369 29.28 33.8959C29.28 33.855 29.2935 33.8214 29.31 33.8214C29.3265 33.8214 29.34 33.7812 29.34 33.732C29.34 33.6829 29.3535 33.6426 29.37 33.6426C29.3865 33.6426 29.4 33.6024 29.4 33.5532C29.4 33.5041 29.4135 33.4638 29.43 33.4638C29.4465 33.4638 29.46 33.4311 29.46 33.3911C29.46 33.3511 29.4735 33.31 29.49 33.2999C29.5065 33.2898 29.52 33.2353 29.52 33.1789C29.52 33.1225 29.5335 33.0764 29.55 33.0764C29.5665 33.0764 29.58 33.0228 29.58 32.9572C29.58 32.8916 29.5935 32.838 29.61 32.838C29.6265 32.838 29.64 32.7919 29.64 32.7355C29.64 32.6791 29.6526 32.6251 29.668 32.6157C29.6834 32.6063 29.7054 32.4915 29.7169 32.3606C29.7284 32.2298 29.7495 32.1227 29.7639 32.1227C29.7783 32.1227 29.79 32.0557 29.79 31.9737C29.79 31.8918 29.8035 31.8247 29.82 31.8247C29.8367 31.8247 29.85 31.7452 29.85 31.6459C29.85 31.5466 29.8634 31.4671 29.88 31.4671C29.8969 31.4671 29.91 31.3835 29.91 31.2759C29.91 31.1494 29.9227 31.0804 29.9475 31.0722C29.977 31.0625 29.985 30.6737 29.985 29.2618C29.985 27.8499 29.977 27.4611 29.9475 27.4514C29.9227 27.4432 29.91 27.3742 29.91 27.2477C29.91 27.1401 29.8969 27.0565 29.88 27.0565C29.8634 27.0565 29.85 26.977 29.85 26.8777C29.85 26.7784 29.8367 26.6989 29.82 26.6989C29.8035 26.6989 29.79 26.6385 29.79 26.5648C29.79 26.491 29.7785 26.4306 29.7644 26.4306C29.7502 26.4306 29.7294 26.32 29.7181 26.1848C29.7069 26.0496 29.6847 25.9345 29.6688 25.929C29.653 25.9235 29.64 25.8665 29.64 25.8024C29.64 25.7381 29.6265 25.6856 29.61 25.6856C29.5935 25.6856 29.58 25.6395 29.58 25.5831C29.58 25.5267 29.5665 25.4722 29.55 25.4621C29.5335 25.452 29.52 25.3975 29.52 25.3411C29.52 25.2847 29.5065 25.2386 29.49 25.2386C29.4735 25.2386 29.46 25.1984 29.46 25.1492C29.46 25.1 29.4465 25.0598 29.43 25.0598C29.4135 25.0598 29.4 25.0195 29.4 24.9704C29.4 24.9212 29.3865 24.881 29.37 24.881C29.3535 24.881 29.34 24.8474 29.34 24.8065C29.34 24.7655 29.3265 24.732 29.31 24.732C29.2935 24.732 29.28 24.6917 29.28 24.6426C29.28 24.5934 29.2665 24.5531 29.25 24.5531C29.2335 24.5531 29.22 24.5129 29.22 24.4637C29.22 24.4146 29.2065 24.3743 29.19 24.3743C29.1735 24.3743 29.16 24.3416 29.16 24.3016C29.16 24.2616 29.1489 24.222 29.1353 24.2136C29.1216 24.2053 29.0852 24.1106 29.0543 24.0033C29.0234 23.896 28.9873 23.8081 28.9741 23.8081C28.9608 23.8081 28.95 23.784 28.95 23.7545C28.95 23.6879 28.883 23.5404 28.8525 23.5401C28.8402 23.54 28.83 23.5131 28.83 23.4803C28.83 23.4475 28.8165 23.4207 28.8 23.4207C28.7835 23.4207 28.77 23.3805 28.77 23.3313C28.77 23.2821 28.7565 23.2419 28.74 23.2419C28.7235 23.2419 28.71 23.2151 28.71 23.1823C28.71 23.1495 28.6991 23.1227 28.6857 23.1227C28.6722 23.1227 28.6427 23.0757 28.62 23.0184C28.5974 22.961 28.5678 22.9141 28.5544 22.9141C28.541 22.9141 28.53 22.8872 28.53 22.8545C28.53 22.8217 28.5165 22.7949 28.5 22.7949C28.4835 22.7949 28.47 22.7752 28.47 22.7512C28.47 22.6906 28.3743 22.4968 28.3445 22.4968C28.3311 22.4968 28.32 22.47 28.32 22.4372C28.32 22.4045 28.3065 22.3776 28.29 22.3776C28.2735 22.3776 28.26 22.3575 28.26 22.3329C28.26 22.3083 28.2465 22.2882 28.23 22.2882C28.2135 22.2882 28.2 22.2614 28.2 22.2286C28.2 22.1958 28.1865 22.169 28.17 22.169C28.1535 22.169 28.14 22.1452 28.14 22.116C28.14 22.0868 28.113 22.0436 28.08 22.02C28.047 21.9964 28.02 21.9532 28.02 21.9241C28.02 21.8948 28.0065 21.871 27.99 21.871C27.9735 21.871 27.96 21.8534 27.96 21.8319C27.96 21.8104 27.9347 21.7658 27.9037 21.7328C27.8727 21.6997 27.8381 21.6435 27.8267 21.6079C27.8153 21.5723 27.7934 21.5432 27.778 21.5432C27.7626 21.5432 27.75 21.5193 27.75 21.4901C27.75 21.461 27.723 21.4178 27.69 21.3942C27.657 21.3706 27.63 21.3303 27.63 21.3048C27.63 21.2792 27.603 21.239 27.57 21.2154C27.537 21.1918 27.51 21.1582 27.51 21.1409C27.51 21.1235 27.483 21.09 27.45 21.0664C27.417 21.0427 27.39 21.0049 27.39 20.9823C27.39 20.9598 27.3495 20.9037 27.3 20.8578C27.2505 20.8118 27.21 20.756 27.21 20.7337C27.21 20.7114 27.1763 20.6571 27.135 20.6129C27.0938 20.5687 27.06 20.5242 27.06 20.514C27.06 20.5038 27.006 20.444 26.94 20.3809C26.874 20.3179 26.82 20.2523 26.82 20.235C26.82 20.2176 26.7458 20.1273 26.655 20.0343C26.5643 19.9412 26.49 19.8534 26.49 19.8393C26.49 19.8251 25.9433 19.2707 25.275 18.6072C24.6068 17.9437 24.06 17.3887 24.06 17.374C24.06 17.3593 23.9326 17.2218 23.7769 17.0685C23.6211 16.9152 23.476 16.7723 23.4544 16.7507C23.4327 16.7293 23.2868 16.5851 23.13 16.4304C22.9733 16.2757 22.8354 16.139 22.8237 16.1268C22.0397 15.3068 21.8924 15.1893 21.684 15.2179Z" fill="#F4C249"/>
</g>
<defs>
<clipPath id="clip0_1_6">
<rect width="30" height="43.0531" fill="white" transform="translate(0 0.473511)"/>
</clipPath>
</defs>
</svg>
