<svg width="30" height="44" viewBox="0 0 30 44" fill="none" xmlns="http://www.w3.org/2000/svg">
<g clip-path="url(#clip0_0_77)">
<rect width="30" height="43.0531" transform="translate(0 0.473463)" fill="white" fill-opacity="0.01"/>
<path fill-rule="evenodd" clip-rule="evenodd" d="M12.7125 0.493866C12.5681 0.500348 12.45 0.518527 12.45 0.534322C12.45 0.550042 12.3623 0.562931 12.255 0.562931C12.145 0.562931 12.06 0.575895 12.06 0.592733C12.06 0.609273 11.98 0.622535 11.88 0.622535C11.78 0.622535 11.7 0.635796 11.7 0.652336C11.7 0.668727 11.6393 0.682138 11.565 0.682138C11.4908 0.682138 11.43 0.695548 11.43 0.711939C11.43 0.72833 11.3726 0.74189 11.3025 0.742039C11.2324 0.742262 11.1087 0.762379 11.0277 0.786741C10.9467 0.811179 10.8353 0.831146 10.7802 0.831146C10.7251 0.831146 10.68 0.844556 10.68 0.860947C10.68 0.877338 10.6336 0.890749 10.5768 0.890749C10.52 0.890749 10.4652 0.90416 10.455 0.920551C10.4448 0.936941 10.39 0.950352 10.3332 0.950352C10.2764 0.950352 10.23 0.963763 10.23 0.980154C10.23 0.996545 10.1895 1.00996 10.14 1.00996C10.0905 1.00996 10.05 1.02337 10.05 1.03976C10.05 1.05615 10.0095 1.06956 9.96 1.06956C9.9105 1.06956 9.87 1.08297 9.87 1.09936C9.87 1.11575 9.83708 1.12916 9.7968 1.12916C9.75653 1.12916 9.7152 1.14257 9.705 1.15896C9.6948 1.17535 9.65348 1.18876 9.6132 1.18876C9.57293 1.18876 9.54 1.20218 9.54 1.21857C9.54 1.23496 9.4995 1.24837 9.45 1.24837C9.4005 1.24837 9.36 1.26178 9.36 1.27817C9.36 1.29456 9.3195 1.30797 9.27 1.30797C9.2205 1.30797 9.18 1.31922 9.18 1.333C9.18 1.34671 9.09225 1.38292 8.985 1.41339C8.87775 1.44387 8.79 1.47955 8.79 1.49267C8.79 1.50585 8.76428 1.51658 8.73285 1.51658C8.67165 1.51658 8.4216 1.63586 8.40503 1.67304C8.39948 1.68533 8.3691 1.69539 8.33753 1.69539C8.30588 1.69539 8.28 1.7088 8.28 1.72519C8.28 1.74158 8.2395 1.755 8.19 1.755C8.1405 1.755 8.1 1.76841 8.1 1.7848C8.1 1.80119 8.073 1.8146 8.04 1.8146C8.007 1.8146 7.98 1.82548 7.98 1.83881C7.98 1.85215 7.93275 1.8815 7.875 1.904C7.81725 1.9265 7.77 1.95586 7.77 1.96919C7.77 1.98253 7.7502 1.99341 7.72605 1.99341C7.66508 1.99341 7.47 2.08848 7.47 2.11813C7.47 2.13146 7.443 2.14242 7.41 2.14242C7.377 2.14242 7.35 2.15583 7.35 2.17222C7.35 2.18861 7.323 2.20202 7.29 2.20202C7.257 2.20202 7.23 2.21543 7.23 2.23182C7.23 2.24821 7.20975 2.26162 7.185 2.26162C7.16025 2.26162 7.14 2.27503 7.14 2.29142C7.14 2.30782 7.116 2.32123 7.0866 2.32123C7.05728 2.32123 7.01378 2.34805 6.99 2.38083C6.96623 2.41361 6.92273 2.44043 6.8934 2.44043C6.864 2.44043 6.84 2.45384 6.84 2.47023C6.84 2.48662 6.81795 2.50004 6.79103 2.50004C6.7641 2.50004 6.72023 2.52492 6.69353 2.55539C6.66683 2.58579 6.61463 2.62021 6.5775 2.63191C6.54038 2.64353 6.51 2.66558 6.51 2.68086C6.51 2.69613 6.486 2.70865 6.4566 2.70865C6.42728 2.70865 6.38378 2.73547 6.36 2.76825C6.33623 2.80103 6.29768 2.82785 6.27443 2.82785C6.2511 2.82785 6.21023 2.8514 6.18353 2.88023C6.15683 2.90899 6.0981 2.95138 6.05303 2.9744C6.00788 2.99735 5.9631 3.04086 5.9535 3.07103C5.94383 3.10121 5.91285 3.12587 5.88458 3.12587C5.85638 3.12587 5.81378 3.15269 5.79 3.18547C5.76623 3.21825 5.72558 3.24508 5.69963 3.24508C5.67368 3.24508 5.60243 3.29201 5.54115 3.34938C5.47995 3.40675 5.41898 3.45369 5.40563 3.45369C5.39235 3.45369 5.33498 3.50703 5.2782 3.57222C5.22143 3.63741 5.15768 3.69106 5.13653 3.69143C5.1153 3.6918 5.0514 3.73568 4.99455 3.78895C4.80495 3.96635 4.74233 4.01992 4.72433 4.01992C4.70213 4.01992 3.57 5.14366 3.57 5.16571C3.57 5.18613 3.46283 5.31219 3.3375 5.43907C3.28388 5.49338 3.24 5.55321 3.24 5.57198C3.24 5.59083 3.186 5.65319 3.12 5.71071C3.054 5.76815 3 5.82761 3 5.84273C3 5.85793 2.96963 5.90263 2.9325 5.94205C2.81573 6.0661 2.79 6.10238 2.79 6.14291C2.79 6.16459 2.763 6.20162 2.73 6.22524C2.697 6.24885 2.67 6.28 2.67 6.29438C2.67 6.30875 2.6295 6.35808 2.58 6.40405C2.5305 6.45001 2.49 6.50604 2.49 6.52862C2.49 6.55119 2.463 6.58904 2.43 6.61266C2.397 6.63627 2.37 6.67651 2.37 6.70206C2.37 6.72762 2.343 6.76785 2.31 6.79147C2.277 6.81508 2.25 6.85688 2.25 6.8843C2.25 6.91164 2.22975 6.94182 2.205 6.95128C2.18025 6.96066 2.16 6.99568 2.16 7.02891C2.16 7.06221 2.1465 7.08948 2.13 7.08948C2.1135 7.08948 2.1 7.11332 2.1 7.14253C2.1 7.17166 2.073 7.21487 2.04 7.23849C2.007 7.26211 1.98 7.30532 1.98 7.33445C1.98 7.36366 1.9665 7.3875 1.95 7.3875C1.9335 7.3875 1.92 7.41134 1.92 7.44055C1.92 7.46968 1.893 7.51289 1.86 7.53651C1.827 7.56012 1.8 7.59663 1.8 7.61757C1.8 7.63858 1.7865 7.65571 1.77 7.65571C1.7535 7.65571 1.74 7.68253 1.74 7.71532C1.74 7.7481 1.7265 7.77492 1.71 7.77492C1.6935 7.77492 1.68 7.80174 1.68 7.83452C1.68 7.8673 1.6665 7.89413 1.65 7.89413C1.6335 7.89413 1.62 7.90977 1.62 7.92884C1.62 7.98442 1.52078 8.19214 1.49423 8.19214C1.48088 8.19214 1.47 8.21226 1.47 8.23684C1.47 8.26143 1.4565 8.28155 1.44 8.28155C1.4235 8.28155 1.41 8.32178 1.41 8.37095C1.41 8.42012 1.3965 8.46036 1.38 8.46036C1.3635 8.46036 1.35 8.48718 1.35 8.51996C1.35 8.55274 1.3365 8.57956 1.32 8.57956C1.3035 8.57956 1.29 8.60638 1.29 8.63917C1.29 8.67195 1.27905 8.69877 1.26563 8.69877C1.2522 8.69877 1.22265 8.74571 1.2 8.80307C1.17735 8.86044 1.1478 8.90738 1.13438 8.90738C1.12095 8.90738 1.11 8.94761 1.11 8.99678C1.11 9.04596 1.0965 9.08619 1.08 9.08619C1.0635 9.08619 1.05 9.11189 1.05 9.14333C1.05 9.1747 1.03988 9.20487 1.0275 9.21039C0.995328 9.22454 0.899703 9.50565 0.899853 9.58537C0.899928 9.62225 0.886503 9.65242 0.870003 9.65242C0.853503 9.65242 0.840003 9.67924 0.840003 9.71202C0.840003 9.7448 0.826503 9.77163 0.810003 9.77163C0.793503 9.77163 0.780003 9.81186 0.780003 9.86103C0.780003 9.9102 0.766503 9.95044 0.750003 9.95044C0.733503 9.95044 0.720003 9.98396 0.720003 10.0249C0.720003 10.0659 0.706503 10.0994 0.690003 10.0994C0.673503 10.0994 0.660003 10.1397 0.660003 10.1888C0.660003 10.238 0.646503 10.2783 0.630003 10.2783C0.613503 10.2783 0.600003 10.3185 0.600003 10.3677C0.600003 10.4168 0.586503 10.4571 0.570003 10.4571C0.553503 10.4571 0.540003 10.5032 0.540003 10.5596C0.540003 10.616 0.526503 10.6704 0.510003 10.6806C0.493503 10.6907 0.480003 10.7318 0.480003 10.7718C0.480003 10.8118 0.466503 10.8445 0.450003 10.8445C0.433503 10.8445 0.420003 10.8981 0.420003 10.9637C0.420003 11.0293 0.409503 11.0829 0.396678 11.0829C0.370728 11.0829 0.301728 11.4284 0.279078 11.6715C0.271053 11.7575 0.252228 11.8279 0.237228 11.8279C0.222228 11.8279 0.210003 11.8883 0.210003 11.962C0.210003 12.0358 0.196503 12.0962 0.180003 12.0962C0.163353 12.0962 0.150003 12.1756 0.150003 12.275C0.150003 12.3743 0.136653 12.4538 0.120003 12.4538C0.103128 12.4538 0.0900031 12.5374 0.0900031 12.645C0.0900031 12.7715 0.0773281 12.8404 0.0525031 12.8486C-0.00239687 12.8668 -0.00239687 16.4514 0.0525031 16.4695C0.0773281 16.4777 0.0900031 16.5467 0.0900031 16.6732C0.0900031 16.7808 0.103128 16.8644 0.120003 16.8644C0.136653 16.8644 0.150003 16.9439 0.150003 17.0432C0.150003 17.1425 0.163353 17.222 0.180003 17.222C0.196503 17.222 0.210003 17.2958 0.210003 17.3859C0.210003 17.4761 0.221778 17.5498 0.236178 17.5498C0.250578 17.5498 0.270678 17.6135 0.280878 17.6914C0.316428 17.9627 0.375153 18.2606 0.397503 18.2826C0.409878 18.2948 0.420003 18.3428 0.420003 18.3893C0.420003 18.4357 0.433503 18.4737 0.450003 18.4737C0.466503 18.4737 0.480003 18.5206 0.480003 18.578C0.480003 18.6354 0.493503 18.6823 0.510003 18.6823C0.526503 18.6823 0.540003 18.7225 0.540003 18.7717C0.540003 18.8209 0.553503 18.8611 0.570003 18.8611C0.586503 18.8611 0.600003 18.9013 0.600003 18.9505C0.600003 18.9997 0.613503 19.0399 0.630003 19.0399C0.646503 19.0399 0.660003 19.0802 0.660003 19.1293C0.660003 19.1785 0.673503 19.2187 0.690003 19.2187C0.706503 19.2187 0.720003 19.2523 0.720003 19.2932C0.720003 19.3342 0.733503 19.3677 0.750003 19.3677C0.766503 19.3677 0.780003 19.408 0.780003 19.4571C0.780003 19.5063 0.793503 19.5466 0.810003 19.5466C0.826503 19.5466 0.840003 19.5868 0.840003 19.636C0.840003 19.6851 0.852003 19.7254 0.866628 19.7254C0.881253 19.7254 0.899928 19.7622 0.908178 19.8073C0.937503 19.9677 1.15733 20.4733 1.20735 20.4952C1.2198 20.5007 1.23 20.5443 1.23 20.5921C1.23 20.6399 1.2435 20.679 1.26 20.679C1.2765 20.679 1.29 20.7058 1.29 20.7386C1.29 20.7714 1.3035 20.7982 1.32 20.7982C1.3365 20.7982 1.35 20.825 1.35 20.8578C1.35 20.8906 1.36095 20.9174 1.37438 20.9174C1.3878 20.9174 1.41735 20.9644 1.44 21.0217C1.46265 21.0791 1.4922 21.126 1.50563 21.126C1.51905 21.126 1.53 21.1458 1.53 21.1699C1.53 21.227 1.68068 21.5433 1.7079 21.5433C1.71938 21.5433 1.74735 21.5902 1.77 21.6476C1.79265 21.7049 1.8222 21.7519 1.83563 21.7519C1.84905 21.7519 1.86 21.7757 1.86 21.8049C1.86 21.834 1.887 21.8773 1.92 21.9009C1.953 21.9245 1.98 21.9677 1.98 21.9968C1.98 22.026 1.9935 22.0499 2.01 22.0499C2.0265 22.0499 2.04 22.0718 2.04 22.0985C2.04 22.1253 2.064 22.1689 2.0934 22.1954C2.12273 22.2219 2.17208 22.3006 2.20298 22.3703C2.2338 22.4399 2.27055 22.4969 2.28458 22.4969C2.29853 22.4969 2.31 22.515 2.31 22.5372C2.31 22.5593 2.34713 22.6166 2.3925 22.6644C2.43788 22.7122 2.49413 22.7879 2.5176 22.8327C2.541 22.8775 2.57138 22.9141 2.5851 22.9141C2.59875 22.9141 2.61 22.9289 2.61 22.9469C2.61 22.9649 2.6505 23.0172 2.7 23.0631C2.7495 23.1091 2.79 23.1649 2.79 23.1872C2.79 23.2095 2.82375 23.2638 2.865 23.308C2.90625 23.3522 2.94 23.4007 2.94 23.4158C2.94 23.431 2.994 23.4904 3.06 23.5479C3.126 23.6054 3.18 23.6677 3.18 23.6864C3.18 23.7051 3.24075 23.7807 3.315 23.8544C3.38925 23.9282 3.45 24.0014 3.45 24.0171C3.45 24.0327 3.88875 24.4826 4.425 25.0167C4.96125 25.5509 5.4 26.0005 5.4 26.0159C5.4 26.1129 8.08013 28.7006 8.14853 28.6696C8.1984 28.6471 8.2443 28.6467 8.30175 28.6684C8.36115 28.6908 8.38688 28.69 8.3952 28.6652C8.4015 28.6465 8.45258 28.5887 8.50875 28.5367C8.56493 28.4848 8.71028 28.3435 8.83185 28.2227C8.95335 28.1019 9.0933 27.9628 9.1428 27.9136C9.1923 27.8645 9.33405 27.7237 9.4578 27.6007C9.58155 27.4778 9.7233 27.337 9.7728 27.2878C9.8223 27.2386 9.96413 27.0979 10.088 26.975C10.3556 26.7095 10.3691 26.6961 10.6963 26.3711C10.8365 26.2318 10.9783 26.091 11.0113 26.0582C11.0443 26.0254 11.1842 25.8864 11.3222 25.7493C11.4602 25.6122 11.6001 25.4732 11.6331 25.4404C11.6661 25.4076 11.8079 25.2668 11.9481 25.1275C12.0884 24.9882 12.2301 24.8474 12.2631 24.8146C12.2961 24.7818 12.4379 24.641 12.5781 24.5017C12.7184 24.3623 12.8601 24.2215 12.8931 24.1887C12.9261 24.156 13.0661 24.0173 13.2041 23.8805C13.4936 23.5938 13.4441 23.6427 13.8044 23.2849C13.9587 23.1315 14.1005 22.9907 14.1194 22.9719C14.1383 22.9532 14.2841 22.8084 14.4432 22.6503C14.6024 22.4921 14.7422 22.3524 14.7538 22.3397C14.7655 22.327 14.8071 22.2904 14.8464 22.2583C14.9046 22.2109 14.9142 22.1825 14.8985 22.1046C14.8832 22.0284 14.894 21.9938 14.9522 21.9327C15.082 21.7963 15.0355 21.7222 14.4963 21.2057C14.4421 21.1537 14.3138 21.0261 14.2113 20.922C14.1089 20.818 13.9659 20.6772 13.8938 20.6091C13.8215 20.541 13.6798 20.4002 13.5788 20.2962C13.4777 20.1922 13.3359 20.0514 13.2638 19.9833C13.1915 19.9152 13.0498 19.7744 12.9488 19.6704C12.8477 19.5664 12.7059 19.4256 12.6338 19.3575C12.5615 19.2894 12.4198 19.1486 12.3188 19.0445C12.2177 18.9405 12.0759 18.7997 12.0038 18.7316C11.9315 18.6635 11.7898 18.5227 11.6888 18.4187C11.5877 18.3147 11.4459 18.1739 11.3738 18.1058C11.3015 18.0377 11.1598 17.897 11.0588 17.793C10.9577 17.689 10.8297 17.5616 10.7743 17.5098C10.4474 17.2042 10.3216 17.0732 10.2809 16.9959C10.2557 16.9481 10.207 16.8795 10.1726 16.8433C10.1381 16.8071 10.11 16.7665 10.11 16.753C10.11 16.7395 10.083 16.7092 10.05 16.6856C10.017 16.662 9.99 16.6217 9.99 16.5962C9.99 16.5706 9.963 16.5304 9.93 16.5068C9.897 16.4832 9.87 16.44 9.87 16.4108C9.87 16.3816 9.8565 16.3578 9.84 16.3578C9.8235 16.3578 9.81 16.3359 9.81 16.3091C9.81 16.2824 9.78518 16.2388 9.7548 16.2123C9.72443 16.1858 9.67523 16.0865 9.64538 15.9917C9.6156 15.897 9.57968 15.8124 9.56558 15.8038C9.55155 15.7951 9.54 15.7647 9.54 15.7361C9.54 15.6709 9.47258 15.5239 9.4425 15.5236C9.43013 15.5234 9.42 15.4697 9.42 15.4041C9.42 15.3386 9.4065 15.2849 9.39 15.2849C9.3735 15.2849 9.36 15.2447 9.36 15.1955C9.36 15.1463 9.3465 15.1061 9.33 15.1061C9.3135 15.1061 9.3 15.0458 9.3 14.972C9.3 14.8982 9.2865 14.8379 9.27 14.8379C9.25238 14.8379 9.24 14.7336 9.24 14.5846C9.24 14.4356 9.22763 14.3313 9.21 14.3313C9.192 14.3313 9.18 14.2121 9.18 14.0333C9.18 13.8544 9.192 13.7352 9.21 13.7352C9.22733 13.7352 9.24 13.6408 9.24 13.5117C9.24 13.3826 9.25268 13.2882 9.27 13.2882C9.2865 13.2882 9.3 13.2279 9.3 13.1541C9.3 13.0803 9.3135 13.02 9.33 13.02C9.3465 13.02 9.36 12.9664 9.36 12.9008C9.36 12.8352 9.3735 12.7816 9.39 12.7816C9.4065 12.7816 9.42 12.7414 9.42 12.6922C9.42 12.643 9.4335 12.6028 9.45 12.6028C9.4665 12.6028 9.48 12.5763 9.48 12.5441C9.48 12.5118 9.507 12.4376 9.54 12.3793C9.573 12.3209 9.6 12.2467 9.6 12.2145C9.6 12.1822 9.6123 12.1558 9.62738 12.1558C9.64245 12.1558 9.66383 12.1021 9.675 12.0365C9.68618 11.971 9.70755 11.9173 9.72263 11.9173C9.7377 11.9173 9.75 11.8972 9.75 11.8726C9.75 11.8481 9.7635 11.8279 9.78 11.8279C9.7965 11.8279 9.81 11.8041 9.81 11.7749C9.81 11.7458 9.837 11.7025 9.87 11.6789C9.903 11.6553 9.93 11.6151 9.93 11.5895C9.93 11.564 9.957 11.5237 9.99 11.5001C10.023 11.4765 10.05 11.4387 10.05 11.4161C10.05 11.3935 10.0905 11.3375 10.14 11.2915C10.1895 11.2455 10.23 11.1994 10.23 11.1889C10.23 11.1424 10.9704 10.3975 11.0167 10.3975C11.0327 10.3975 11.0837 10.3572 11.13 10.3081C11.1763 10.2589 11.2327 10.2187 11.2554 10.2187C11.2781 10.2187 11.3162 10.1918 11.34 10.159C11.3638 10.1263 11.4073 10.0994 11.4366 10.0994C11.466 10.0994 11.49 10.0875 11.49 10.0728C11.49 10.0582 11.5238 10.0379 11.565 10.0276C11.6063 10.0173 11.64 9.99573 11.64 9.97964C11.64 9.96362 11.667 9.95044 11.7 9.95044C11.733 9.95044 11.76 9.93703 11.76 9.92063C11.76 9.90424 11.787 9.89083 11.82 9.89083C11.853 9.89083 11.88 9.87742 11.88 9.86103C11.88 9.84464 11.907 9.83123 11.94 9.83123C11.973 9.83123 12 9.81782 12 9.80143C12 9.78504 12.0338 9.77163 12.075 9.77163C12.1163 9.77163 12.15 9.75822 12.15 9.74182C12.15 9.72543 12.177 9.71202 12.21 9.71202C12.243 9.71202 12.27 9.69861 12.27 9.68222C12.27 9.66583 12.3105 9.65242 12.36 9.65242C12.4095 9.65242 12.45 9.63901 12.45 9.62262C12.45 9.60623 12.504 9.59282 12.57 9.59282C12.636 9.59282 12.69 9.57941 12.69 9.56302C12.69 9.54662 12.7373 9.53321 12.795 9.53321C12.8528 9.53321 12.9 9.5198 12.9 9.50341C12.9 9.48702 12.9664 9.47361 13.0475 9.47361C13.132 9.47361 13.1999 9.45893 13.2065 9.43934C13.2225 9.39166 14.6178 9.39262 14.6339 9.44038C14.64 9.45863 14.7047 9.47361 14.7775 9.47361C14.8504 9.47361 14.91 9.48702 14.91 9.50341C14.91 9.5198 14.964 9.53321 15.03 9.53321C15.096 9.53321 15.15 9.54662 15.15 9.56302C15.15 9.57941 15.1905 9.59282 15.24 9.59282C15.2895 9.59282 15.33 9.60623 15.33 9.62262C15.33 9.63901 15.3638 9.65242 15.405 9.65242C15.4463 9.65242 15.48 9.66583 15.48 9.68222C15.48 9.69861 15.5205 9.71202 15.57 9.71202C15.6195 9.71202 15.66 9.72543 15.66 9.74182C15.66 9.75822 15.687 9.77163 15.72 9.77163C15.753 9.77163 15.78 9.78504 15.78 9.80143C15.78 9.81782 15.8059 9.83123 15.8375 9.83123C15.8691 9.83123 15.8995 9.84181 15.905 9.8547C15.9186 9.88659 16.2404 10.0398 16.2939 10.0398C16.3175 10.0398 16.3562 10.0667 16.38 10.0994C16.4038 10.1322 16.4439 10.1592 16.4691 10.1593C16.4944 10.1595 16.5469 10.1997 16.5859 10.2487C16.6249 10.2978 16.6688 10.3379 16.6834 10.3379C16.698 10.3379 16.7656 10.3915 16.8336 10.4571C16.9016 10.5226 16.9754 10.5763 16.9976 10.5763C17.0198 10.5763 17.0687 10.61 17.1065 10.6513C17.1442 10.6926 17.2189 10.7726 17.2725 10.8291C17.3261 10.8856 17.37 10.9442 17.37 10.9591C17.37 10.974 17.4206 11.0349 17.4825 11.0944C17.5444 11.1539 17.6423 11.2496 17.7 11.3071C17.7578 11.3645 17.9045 11.5103 18.0261 11.6311C18.1477 11.7518 18.2877 11.8908 18.3372 11.94C18.3867 11.9892 18.5285 12.13 18.6522 12.2529C18.776 12.3758 18.9177 12.5167 18.9672 12.5658C19.0167 12.615 19.1585 12.7558 19.2822 12.8787C19.406 13.0017 19.5477 13.1425 19.5972 13.1917C19.6467 13.2408 19.7885 13.3816 19.9122 13.5046C20.1773 13.768 20.2535 13.8437 20.5085 14.0967C20.7155 14.3022 20.8334 14.4194 21.1346 14.7187C21.2419 14.8252 21.3889 14.9682 21.4614 15.0364C21.5339 15.1045 21.599 15.1776 21.6061 15.1987C21.6166 15.2299 21.6362 15.23 21.7118 15.1989C21.7813 15.1703 21.8202 15.169 21.8668 15.1938C21.9229 15.2236 21.9719 15.1836 22.3656 14.7865C22.6058 14.5444 22.8119 14.3366 22.8236 14.325C22.8354 14.3133 24.1241 13.0362 25.6875 11.4868C27.2509 9.93747 28.53 8.65563 28.53 8.63835C28.53 8.59558 28.4871 8.54581 28.2655 8.33109C28.1612 8.23006 28.0195 8.09 27.9505 8.01981C27.8815 7.94956 27.7394 7.80874 27.6347 7.7069C27.53 7.60498 27.3747 7.44986 27.2897 7.36217C27.2046 7.2744 27.0755 7.147 27.0028 7.07905C26.9301 7.01103 26.7271 6.81121 26.5517 6.63501C26.3763 6.45881 26.213 6.31404 26.1889 6.3133C26.1647 6.31248 26.0978 6.25824 26.04 6.1926C25.9823 6.12697 25.8507 5.9901 25.7477 5.88848C25.6446 5.78685 25.5029 5.64627 25.4327 5.57608C25.3625 5.5059 25.2194 5.36509 25.1147 5.26317C25.01 5.16124 24.8547 5.00642 24.7697 4.91903C24.6846 4.83171 24.5571 4.70431 24.4864 4.63592C24.4157 4.5676 24.2597 4.41442 24.1399 4.29558C24.02 4.17675 23.912 4.07952 23.9 4.07952C23.8879 4.07952 23.8313 4.03594 23.7742 3.98266C23.4985 3.72548 23.4605 3.6921 23.4435 3.6921C23.4335 3.6921 23.3735 3.63846 23.31 3.57289C23.2466 3.50733 23.1795 3.45369 23.161 3.45369C23.1425 3.45369 23.0921 3.41874 23.0492 3.37605C23.0062 3.33336 22.9331 3.28531 22.8867 3.26929C22.8404 3.2532 22.7942 3.21438 22.7842 3.18301C22.7742 3.15157 22.7453 3.12587 22.7201 3.12587C22.6948 3.12587 22.6363 3.08564 22.59 3.03646C22.5437 2.98729 22.4873 2.94706 22.4646 2.94706C22.4419 2.94706 22.4038 2.92024 22.38 2.88746C22.3562 2.85467 22.316 2.82785 22.2906 2.82785C22.2652 2.82785 22.2276 2.80103 22.207 2.76825C22.1864 2.73547 22.151 2.70865 22.1285 2.70865C22.1058 2.70865 22.0706 2.68853 22.05 2.66394C22.0295 2.63936 21.9873 2.61924 21.9563 2.61924C21.9254 2.61924 21.9 2.60583 21.9 2.58944C21.9 2.57305 21.876 2.55964 21.8466 2.55964C21.8173 2.55964 21.7738 2.53282 21.75 2.50004C21.7262 2.46725 21.6827 2.44043 21.6534 2.44043C21.624 2.44043 21.6 2.42702 21.6 2.41063C21.6 2.39424 21.5828 2.38083 21.5616 2.38083C21.5405 2.38083 21.5038 2.35401 21.48 2.32123C21.4562 2.28844 21.4127 2.26162 21.3834 2.26162C21.354 2.26162 21.33 2.24821 21.33 2.23182C21.33 2.21543 21.303 2.20202 21.27 2.20202C21.237 2.20202 21.21 2.18861 21.21 2.17222C21.21 2.15583 21.183 2.14242 21.15 2.14242C21.117 2.14242 21.09 2.12901 21.09 2.11261C21.09 2.09622 21.063 2.08281 21.03 2.08281C20.997 2.08281 20.97 2.07 20.97 2.05435C20.97 2.03871 20.9228 2.0171 20.865 2.00637C20.8073 1.99557 20.76 1.97486 20.76 1.96025C20.76 1.94573 20.733 1.9338 20.7 1.9338C20.667 1.9338 20.64 1.92039 20.64 1.904C20.64 1.88761 20.613 1.8742 20.58 1.8742C20.547 1.8742 20.52 1.86079 20.52 1.8444C20.52 1.82801 20.493 1.8146 20.46 1.8146C20.427 1.8146 20.4 1.80119 20.4 1.7848C20.4 1.76841 20.3798 1.755 20.355 1.755C20.3303 1.755 20.31 1.74158 20.31 1.72519C20.31 1.7088 20.283 1.69539 20.25 1.69539C20.217 1.69539 20.19 1.68198 20.19 1.66559C20.19 1.6492 20.163 1.63579 20.13 1.63579C20.097 1.63579 20.07 1.62238 20.07 1.60599C20.07 1.5896 20.0295 1.57619 19.98 1.57619C19.9305 1.57619 19.89 1.56277 19.89 1.54638C19.89 1.52999 19.863 1.51658 19.83 1.51658C19.797 1.51658 19.77 1.50563 19.77 1.49222C19.77 1.46279 19.4759 1.36757 19.3849 1.36757C19.3492 1.36757 19.32 1.35416 19.32 1.33777C19.32 1.32138 19.293 1.30797 19.26 1.30797C19.227 1.30797 19.2 1.29456 19.2 1.27817C19.2 1.26178 19.1671 1.24837 19.1268 1.24837C19.0865 1.24837 19.0452 1.23496 19.035 1.21857C19.0248 1.20218 18.9835 1.18876 18.9432 1.18876C18.9029 1.18876 18.87 1.17535 18.87 1.15896C18.87 1.14257 18.8295 1.12916 18.78 1.12916C18.7305 1.12916 18.69 1.11575 18.69 1.09936C18.69 1.08297 18.6495 1.06956 18.6 1.06956C18.5505 1.06956 18.51 1.05615 18.51 1.03976C18.51 1.02337 18.4628 1.00996 18.405 1.00996C18.3473 1.00996 18.3 0.996545 18.3 0.980154C18.3 0.963763 18.2595 0.950352 18.21 0.950352C18.1605 0.950352 18.12 0.936941 18.12 0.920551C18.12 0.90416 18.066 0.890749 18 0.890749C17.934 0.890749 17.88 0.880318 17.88 0.867578C17.88 0.843364 17.5486 0.776311 17.3025 0.750756C17.2241 0.742635 17.16 0.72386 17.16 0.709034C17.16 0.694282 17.0925 0.682138 17.01 0.682138C16.9275 0.682138 16.86 0.668727 16.86 0.652336C16.86 0.635945 16.7866 0.622535 16.6968 0.622535C16.607 0.622535 16.5252 0.609124 16.515 0.592733C16.5048 0.576342 16.4106 0.562931 16.3058 0.562931C16.1846 0.562931 16.1107 0.549968 16.103 0.527318C16.0912 0.492004 13.355 0.464959 12.7125 0.493866Z" fill="#6A35F5"/>
<path fill-rule="evenodd" clip-rule="evenodd" d="M21.6839 15.2179C21.6394 15.2239 21.5949 15.2515 21.5852 15.2793C21.5755 15.3069 21.5135 15.3765 21.4473 15.4338C21.3812 15.4912 21.2399 15.6253 21.1334 15.7319C21.0269 15.8384 20.8874 15.9775 20.8235 16.041C20.7596 16.1045 20.6196 16.2436 20.5124 16.3501C20.4051 16.4566 20.2634 16.5974 20.1974 16.663C20.1314 16.7286 19.9896 16.8694 19.8824 16.9759C19.7751 17.0825 19.6313 17.225 19.5627 17.2926C19.4942 17.3603 19.3541 17.5007 19.2515 17.6047C19.1489 17.7087 19.0059 17.8496 18.9338 17.9177C18.8615 17.9858 18.7198 18.1266 18.6188 18.2306C18.5177 18.3346 18.3759 18.4754 18.3038 18.5435C18.2315 18.6116 18.0898 18.7524 17.9888 18.8564C17.8877 18.9604 17.7459 19.1012 17.6738 19.1693C17.6015 19.2374 17.4598 19.3779 17.3588 19.4813C17.2577 19.5848 17.131 19.7122 17.0771 19.7645C17.0233 19.8167 16.8933 19.9448 16.7883 20.0493C16.6833 20.1537 16.5434 20.2928 16.4774 20.3584C16.4114 20.424 16.2696 20.5648 16.1624 20.6713C16.0551 20.7779 15.9151 20.917 15.8512 20.9804C15.6692 21.1611 15.344 21.4852 15.1953 21.6338C15.1209 21.7081 15.06 21.7925 15.06 21.8212C15.06 21.85 15.033 21.9023 15 21.9374C14.9168 22.0263 14.9234 22.1519 15.0157 22.235C15.0573 22.2725 15.1484 22.3602 15.2182 22.43C15.4228 22.6346 15.7122 22.9219 15.811 23.0183C15.8613 23.0675 16.0028 23.2083 16.1252 23.3313C16.2477 23.4542 16.3923 23.5975 16.4465 23.6497C16.5007 23.7019 16.6289 23.8293 16.7315 23.9328C16.8341 24.0363 16.9758 24.1771 17.0465 24.2456C17.1172 24.3142 17.2589 24.455 17.3615 24.5586C17.4641 24.6621 17.6058 24.8029 17.6765 24.8715C17.7472 24.94 17.8889 25.0808 17.9915 25.1844C18.0941 25.288 18.2342 25.428 18.3027 25.4957C18.3713 25.5633 18.5151 25.7058 18.6224 25.8124C18.7296 25.9189 18.8714 26.0597 18.9374 26.1253C19.0034 26.1909 19.1428 26.33 19.2472 26.4344C19.3516 26.5389 19.4911 26.6713 19.5572 26.7286C19.6232 26.786 19.6778 26.8536 19.6787 26.8789C19.6794 26.9042 19.7273 26.9746 19.785 27.0354C19.8428 27.0962 19.89 27.1564 19.89 27.1692C19.89 27.1819 19.917 27.2117 19.95 27.2353C19.983 27.2589 20.01 27.2991 20.01 27.3247C20.01 27.3502 20.037 27.3905 20.07 27.4141C20.103 27.4377 20.13 27.4809 20.13 27.51C20.13 27.5392 20.1435 27.5631 20.16 27.5631C20.1765 27.5631 20.19 27.5888 20.19 27.6202C20.19 27.6516 20.2007 27.6818 20.2137 27.6873C20.2457 27.7007 20.4 28.0304 20.4 28.0854C20.4 28.1096 20.4135 28.1293 20.43 28.1293C20.4465 28.1293 20.46 28.162 20.46 28.202C20.46 28.242 20.4735 28.2831 20.49 28.2932C20.5065 28.3034 20.52 28.3444 20.52 28.3844C20.52 28.4244 20.5335 28.4571 20.55 28.4571C20.5665 28.4571 20.58 28.4974 20.58 28.5465C20.58 28.5957 20.5935 28.6359 20.61 28.6359C20.6265 28.6359 20.64 28.6896 20.64 28.7551C20.64 28.8207 20.6535 28.8744 20.67 28.8744C20.6865 28.8744 20.7 28.9347 20.7 29.0085C20.7 29.0822 20.7135 29.1426 20.73 29.1426C20.7473 29.1426 20.76 29.2364 20.76 29.3643C20.76 29.4863 20.7735 29.5944 20.79 29.6045C20.8066 29.6147 20.82 29.7488 20.82 29.9043C20.82 30.072 20.8079 30.1856 20.79 30.1856C20.7727 30.1856 20.76 30.28 20.76 30.4091C20.76 30.5382 20.7473 30.6326 20.73 30.6326C20.7135 30.6326 20.7 30.6997 20.7 30.7817C20.7 30.8636 20.6865 30.9307 20.67 30.9307C20.6535 30.9307 20.64 30.9776 20.64 31.035C20.64 31.0923 20.6265 31.1393 20.61 31.1393C20.5935 31.1393 20.58 31.1795 20.58 31.2287C20.58 31.2778 20.5665 31.3181 20.55 31.3181C20.5335 31.3181 20.52 31.3583 20.52 31.4075C20.52 31.4567 20.5065 31.4969 20.49 31.4969C20.4735 31.4969 20.46 31.5304 20.46 31.5714C20.46 31.6124 20.4465 31.6459 20.43 31.6459C20.4135 31.6459 20.4 31.6645 20.4 31.6872C20.4 31.7099 20.3798 31.7669 20.3552 31.8138C20.3306 31.8608 20.3103 31.9227 20.3102 31.9514C20.3101 31.98 20.2965 32.0035 20.28 32.0035C20.2635 32.0035 20.25 32.0303 20.25 32.0631C20.25 32.0959 20.2365 32.1227 20.22 32.1227C20.2035 32.1227 20.19 32.1399 20.19 32.1609C20.19 32.1818 20.163 32.2183 20.13 32.2419C20.097 32.2655 20.07 32.3058 20.07 32.3313C20.07 32.3569 20.043 32.3971 20.01 32.4207C19.977 32.4444 19.95 32.4846 19.95 32.5101C19.95 32.5357 19.923 32.5759 19.89 32.5996C19.857 32.6232 19.83 32.6585 19.83 32.678C19.83 32.6975 19.7423 32.8015 19.635 32.9091C19.5278 33.0167 19.44 33.1252 19.44 33.1502C19.44 33.1752 19.4188 33.1956 19.3928 33.1956C19.367 33.1956 19.2584 33.2828 19.1517 33.3893C19.045 33.4958 18.9409 33.583 18.9205 33.583C18.9 33.583 18.8638 33.6098 18.84 33.6426C18.8162 33.6754 18.7777 33.7022 18.7544 33.7022C18.7311 33.7022 18.6902 33.7258 18.6635 33.7546C18.6368 33.7833 18.5779 33.8259 18.5325 33.849C18.4871 33.8722 18.45 33.9023 18.45 33.9159C18.45 33.9294 18.4364 33.9406 18.4199 33.9406C18.4033 33.9406 18.3197 33.9741 18.2342 34.0151C18.1487 34.0561 18.0611 34.0896 18.0394 34.0896C18.0177 34.0896 18 34.103 18 34.1194C18 34.1358 17.973 34.1492 17.94 34.1492C17.907 34.1492 17.88 34.1626 17.88 34.179C17.88 34.1954 17.8463 34.2088 17.805 34.2088C17.7638 34.2088 17.73 34.2222 17.73 34.2386C17.73 34.255 17.6895 34.2684 17.64 34.2684C17.5905 34.2684 17.55 34.2818 17.55 34.2982C17.55 34.3146 17.5095 34.328 17.46 34.328C17.4105 34.328 17.37 34.3415 17.37 34.3578C17.37 34.3742 17.3228 34.3876 17.265 34.3876C17.2073 34.3876 17.16 34.4011 17.16 34.4174C17.16 34.4338 17.0925 34.4472 17.01 34.4472C16.9275 34.4472 16.86 34.4607 16.86 34.477C16.86 34.4943 16.765 34.5068 16.635 34.5068C16.505 34.5068 16.41 34.5194 16.41 34.5367C16.41 34.5546 16.285 34.5665 16.095 34.5665C15.905 34.5665 15.78 34.5546 15.78 34.5367C15.78 34.5193 15.68 34.5068 15.54 34.5068C15.4 34.5068 15.3 34.4944 15.3 34.477C15.3 34.4607 15.2393 34.4472 15.165 34.4472C15.0908 34.4472 15.03 34.4338 15.03 34.4174C15.03 34.4011 14.9895 34.3876 14.94 34.3876C14.8905 34.3876 14.85 34.3742 14.85 34.3578C14.85 34.3415 14.8028 34.328 14.745 34.328C14.6873 34.328 14.64 34.3146 14.64 34.2982C14.64 34.2818 14.5995 34.2684 14.55 34.2684C14.5005 34.2684 14.46 34.255 14.46 34.2386C14.46 34.2222 14.433 34.2088 14.4 34.2088C14.367 34.2088 14.34 34.1954 14.34 34.179C14.34 34.1626 14.313 34.1492 14.28 34.1492C14.247 34.1492 14.22 34.1358 14.22 34.1194C14.22 34.103 14.1951 34.0896 14.1646 34.0896C14.1011 34.0896 13.9297 34.0101 13.9038 33.9686C13.8943 33.9532 13.8602 33.9406 13.8282 33.9406C13.7962 33.9406 13.77 33.9272 13.77 33.9108C13.77 33.8944 13.746 33.881 13.7166 33.881C13.6873 33.881 13.6438 33.8542 13.62 33.8214C13.5962 33.7886 13.556 33.7618 13.5306 33.7618C13.5052 33.7618 13.4676 33.735 13.447 33.7022C13.4264 33.6694 13.3961 33.6426 13.3798 33.6426C13.3634 33.6426 13.2944 33.589 13.2264 33.5234C13.1584 33.4578 13.0845 33.4042 13.0622 33.4042C13.04 33.4042 12.9775 33.3571 12.9233 33.2996C12.8693 33.2421 12.7676 33.1352 12.6975 33.062C12.6274 32.9888 12.57 32.9189 12.57 32.9067C12.57 32.8945 12.4887 32.8036 12.3894 32.7047C12.2901 32.606 12.1214 32.4379 12.0146 32.3313C11.9078 32.2248 11.7663 32.084 11.7003 32.0184C11.6343 31.9529 11.4926 31.812 11.3854 31.7055C11.2781 31.599 11.1329 31.4548 11.0627 31.3852C10.9925 31.3155 10.8653 31.1881 10.78 31.1021C10.6947 31.016 10.553 30.8756 10.465 30.79C10.377 30.7045 10.2342 30.5637 10.1476 30.4771C10.061 30.3906 9.91929 30.2494 9.83259 30.1633C9.74597 30.0774 9.60422 29.9366 9.51759 29.8504C9.43104 29.7644 9.28929 29.6236 9.20259 29.5375C9.11597 29.4515 8.97459 29.3107 8.88857 29.2246C8.80247 29.1385 8.66484 29.0077 8.58257 28.934C8.50037 28.8602 8.42514 28.7779 8.41554 28.7509C8.39649 28.6976 8.22107 28.6573 8.17884 28.6964C8.16444 28.7098 8.13437 28.7137 8.11187 28.7052C8.08869 28.6963 8.01917 28.7456 7.95092 28.8192C7.88484 28.8905 7.80519 28.9739 7.77384 29.0044C7.68699 29.0891 7.20572 29.5676 7.14692 29.6277C7.11834 29.6568 6.98027 29.7937 6.84002 29.9319C6.69977 30.0701 6.55412 30.2139 6.51632 30.2515C6.47852 30.289 6.33377 30.4337 6.19464 30.573C6.05552 30.7124 5.91377 30.8532 5.87964 30.886C5.84552 30.9187 5.70347 31.0596 5.56397 31.1989C5.42447 31.3382 5.29652 31.4656 5.27964 31.482C5.26277 31.4984 5.12432 31.6356 4.97199 31.7869C4.81967 31.9383 4.67792 32.0791 4.65699 32.0999C4.63607 32.1206 4.49432 32.2615 4.34199 32.4128C4.18967 32.5641 4.04792 32.7049 4.02699 32.7257C4.00607 32.7465 3.86072 32.8909 3.70397 33.0466C3.54722 33.2023 3.40487 33.3431 3.38762 33.3595C3.37044 33.3759 3.22892 33.5167 3.07322 33.6724C2.91744 33.8281 2.77794 33.967 2.76317 33.9809C2.74832 33.9949 2.61984 34.1223 2.47749 34.264C2.16354 34.5768 2.16167 34.5786 1.84322 34.8943C1.47092 35.2632 1.47002 35.2643 1.47002 35.3198C1.47002 35.3722 1.75974 35.6989 1.80624 35.6989C1.83407 35.6989 1.92287 35.7745 2.07812 35.9303C2.13144 35.9838 2.27447 36.1263 2.39612 36.2471C2.65914 36.5083 2.72814 36.5769 2.98449 36.8314C3.09182 36.9379 3.23709 37.081 3.30729 37.1494C3.37757 37.2178 3.50462 37.3452 3.58967 37.4325C3.78714 37.6353 4.13769 37.9638 4.15674 37.9638C4.17047 37.9638 4.39592 38.1738 4.59722 38.3739C4.64672 38.4231 4.78847 38.5639 4.91222 38.6868C5.03597 38.8097 5.17772 38.9506 5.22722 38.9997C5.27672 39.0489 5.41667 39.188 5.53817 39.3088C5.65974 39.4296 5.80322 39.5708 5.85707 39.6227C5.91092 39.6746 6.00639 39.7718 6.06924 39.8388C6.13202 39.9057 6.19659 39.9605 6.21272 39.9605C6.22884 39.9605 6.28862 40.0041 6.34547 40.0574C6.53612 40.2358 6.59777 40.2884 6.61629 40.2884C6.62642 40.2884 6.68657 40.342 6.75002 40.4076C6.81347 40.4731 6.88119 40.5268 6.90062 40.5268C6.92004 40.5268 6.97374 40.567 7.02002 40.6162C7.06629 40.6653 7.12382 40.7056 7.14782 40.7056C7.17189 40.7056 7.21697 40.7391 7.24794 40.7801C7.27892 40.8211 7.32504 40.8546 7.35054 40.8546C7.37597 40.8546 7.41624 40.8814 7.44002 40.9142C7.46379 40.947 7.50429 40.9738 7.53002 40.9738C7.55574 40.9738 7.59624 41.0006 7.62002 41.0334C7.64379 41.0662 7.68429 41.093 7.71002 41.093C7.73574 41.093 7.77624 41.1198 7.80002 41.1526C7.82379 41.1854 7.86054 41.2122 7.88162 41.2122C7.90277 41.2122 7.92002 41.2246 7.92002 41.2398C7.92002 41.255 7.97402 41.2912 8.04002 41.3201C8.10602 41.349 8.16002 41.3835 8.16002 41.3967C8.16002 41.41 8.18702 41.4208 8.22002 41.4208C8.25302 41.4208 8.28002 41.4342 8.28002 41.4506C8.28002 41.467 8.30402 41.4804 8.33342 41.4804C8.36274 41.4804 8.40624 41.5072 8.43002 41.54C8.45379 41.5728 8.49054 41.5996 8.51162 41.5996C8.53277 41.5996 8.55002 41.613 8.55002 41.6294C8.55002 41.6458 8.57702 41.6592 8.61002 41.6592C8.64302 41.6592 8.67002 41.6726 8.67002 41.689C8.67002 41.7054 8.69402 41.7188 8.72342 41.7188C8.75274 41.7188 8.79624 41.7457 8.82002 41.7784C8.84379 41.8112 8.88729 41.838 8.91662 41.838C8.94602 41.838 8.97002 41.8514 8.97002 41.8678C8.97002 41.8842 8.99702 41.8976 9.03002 41.8976C9.06302 41.8976 9.09002 41.9105 9.09002 41.9261C9.09002 41.9417 9.13727 41.9634 9.19502 41.9741C9.25277 41.9849 9.30002 42.0056 9.30002 42.0202C9.30002 42.0347 9.32702 42.0466 9.36002 42.0466C9.39302 42.0466 9.42002 42.0601 9.42002 42.0765C9.42002 42.0928 9.44702 42.1063 9.48002 42.1063C9.51302 42.1063 9.54002 42.1197 9.54002 42.1361C9.54002 42.1524 9.56702 42.1659 9.60002 42.1659C9.63302 42.1659 9.66002 42.1793 9.66002 42.1957C9.66002 42.212 9.69377 42.2255 9.73502 42.2255C9.77627 42.2255 9.81002 42.2389 9.81002 42.2553C9.81002 42.2716 9.83702 42.2851 9.87002 42.2851C9.90302 42.2851 9.93002 42.2985 9.93002 42.3149C9.93002 42.3313 9.95702 42.3447 9.99002 42.3447C10.023 42.3447 10.05 42.3581 10.05 42.3745C10.05 42.3909 10.0905 42.4043 10.14 42.4043C10.1895 42.4043 10.2301 42.4143 10.2302 42.4266C10.2305 42.4525 10.3751 42.5235 10.4276 42.5235C10.4471 42.5235 10.5018 42.5435 10.5491 42.568C10.5963 42.5925 10.6721 42.6126 10.7175 42.6127C10.7629 42.6128 10.8 42.6263 10.8 42.6427C10.8 42.6591 10.8338 42.6725 10.875 42.6725C10.9163 42.6725 10.95 42.6859 10.95 42.7023C10.95 42.7187 10.9905 42.7321 11.04 42.7321C11.0895 42.7321 11.13 42.7455 11.13 42.7619C11.13 42.7783 11.1705 42.7917 11.22 42.7917C11.2695 42.7917 11.31 42.8051 11.31 42.8215C11.31 42.8379 11.3505 42.8513 11.4 42.8513C11.4495 42.8513 11.49 42.8647 11.49 42.8811C11.49 42.8975 11.5229 42.9109 11.5632 42.9109C11.6035 42.9109 11.6448 42.9243 11.655 42.9407C11.6652 42.9571 11.72 42.9705 11.7768 42.9705C11.8336 42.9705 11.88 42.9839 11.88 43.0003C11.88 43.0167 11.9205 43.0301 11.97 43.0301C12.0195 43.0301 12.06 43.0435 12.06 43.0599C12.06 43.0763 12.1064 43.0897 12.1632 43.0897C12.22 43.0897 12.2748 43.1031 12.285 43.1195C12.2952 43.1359 12.3635 43.1493 12.4368 43.1493C12.5101 43.1493 12.57 43.1615 12.57 43.1764C12.57 43.1913 12.6848 43.2131 12.825 43.2246C12.9653 43.2363 13.08 43.2576 13.08 43.272C13.08 43.2865 13.161 43.2983 13.26 43.2983C13.36 43.2983 13.44 43.3116 13.44 43.3281C13.44 43.345 13.525 43.3579 13.635 43.3579C13.745 43.3579 13.83 43.3709 13.83 43.3877C13.83 43.4052 13.9342 43.4175 14.0825 43.4175C14.2456 43.4175 14.339 43.4296 14.3465 43.4516C14.363 43.501 17.0768 43.5016 17.0933 43.4522C17.101 43.4294 17.1919 43.4175 17.3575 43.4175C17.5058 43.4175 17.61 43.4052 17.61 43.3877C17.61 43.3709 17.695 43.3579 17.805 43.3579C17.915 43.3579 18 43.345 18 43.3281C18 43.3116 18.08 43.2983 18.18 43.2983C18.279 43.2983 18.36 43.2873 18.36 43.2737C18.36 43.2602 18.4849 43.2332 18.6375 43.2137C19.0712 43.1582 19.14 43.1449 19.14 43.1164C19.14 43.1017 19.194 43.0897 19.26 43.0897C19.326 43.0897 19.38 43.0763 19.38 43.0599C19.38 43.0435 19.4264 43.0301 19.4832 43.0301C19.54 43.0301 19.5948 43.0167 19.605 43.0003C19.6152 42.9839 19.6565 42.9705 19.6968 42.9705C19.7371 42.9705 19.77 42.9571 19.77 42.9407C19.77 42.9243 19.824 42.9109 19.89 42.9109C19.956 42.9109 20.01 42.8975 20.01 42.8811C20.01 42.8647 20.0505 42.8513 20.1 42.8513C20.1495 42.8513 20.19 42.8379 20.19 42.8215C20.19 42.8051 20.2238 42.7917 20.265 42.7917C20.3063 42.7917 20.34 42.7783 20.34 42.7619C20.34 42.7455 20.3805 42.7321 20.43 42.7321C20.4795 42.7321 20.52 42.7187 20.52 42.7023C20.52 42.6859 20.547 42.6725 20.58 42.6725C20.613 42.6725 20.64 42.6608 20.64 42.6466C20.64 42.6322 20.707 42.6118 20.7888 42.601C20.8706 42.5902 20.9456 42.5683 20.9555 42.5524C20.9654 42.5365 20.9998 42.5235 21.0318 42.5235C21.0638 42.5235 21.09 42.5101 21.09 42.4937C21.09 42.4773 21.1229 42.4639 21.1632 42.4639C21.2035 42.4639 21.2448 42.4505 21.255 42.4341C21.2652 42.4177 21.2998 42.4043 21.3318 42.4043C21.3638 42.4043 21.39 42.3909 21.39 42.3745C21.39 42.3581 21.417 42.3447 21.45 42.3447C21.483 42.3447 21.51 42.3313 21.51 42.3149C21.51 42.2985 21.5438 42.2851 21.585 42.2851C21.6263 42.2851 21.66 42.2716 21.66 42.2553C21.66 42.2389 21.687 42.2255 21.72 42.2255C21.753 42.2255 21.78 42.212 21.78 42.1957C21.78 42.1793 21.807 42.1659 21.84 42.1659C21.873 42.1659 21.9 42.1524 21.9 42.1361C21.9 42.1197 21.927 42.1063 21.96 42.1063C21.993 42.1063 22.02 42.0928 22.02 42.0765C22.02 42.0601 22.047 42.0466 22.08 42.0466C22.113 42.0466 22.14 42.0332 22.14 42.0168C22.14 42.0005 22.1561 41.987 22.1757 41.987C22.2327 41.987 22.77 41.7144 22.77 41.6855C22.77 41.671 22.7903 41.6592 22.815 41.6592C22.8398 41.6592 22.86 41.6458 22.86 41.6294C22.86 41.613 22.884 41.5996 22.9134 41.5996C22.9427 41.5996 22.9862 41.5728 23.01 41.54C23.0338 41.5072 23.0773 41.4804 23.1066 41.4804C23.136 41.4804 23.16 41.467 23.16 41.4506C23.16 41.4342 23.187 41.4208 23.22 41.4208C23.253 41.4208 23.28 41.4083 23.28 41.393C23.28 41.3778 23.3104 41.3557 23.3475 41.3441C23.3846 41.3324 23.4368 41.298 23.4635 41.2676C23.4902 41.2371 23.5341 41.2122 23.561 41.2122C23.588 41.2122 23.61 41.1988 23.61 41.1824C23.61 41.166 23.6316 41.1526 23.658 41.1526C23.6843 41.1526 23.7437 41.1124 23.79 41.0632C23.8363 41.014 23.8927 40.9738 23.9154 40.9738C23.9381 40.9738 23.9762 40.947 24 40.9142C24.0238 40.8814 24.0544 40.8546 24.068 40.8546C24.0816 40.8546 24.1265 40.8211 24.1677 40.7801C24.209 40.7391 24.2603 40.7056 24.2819 40.7056C24.3035 40.7056 24.3635 40.6653 24.4153 40.6162C24.4671 40.567 24.5215 40.5268 24.5361 40.5268C24.5508 40.5268 24.6101 40.4731 24.668 40.4076C24.7259 40.342 24.7887 40.2884 24.8077 40.2884C24.8415 40.2884 24.8864 40.2522 25.0946 40.0574C25.1514 40.0041 25.2054 39.9605 25.2145 39.9605C25.2302 39.9605 25.5473 39.661 25.8112 39.3968C25.8793 39.3286 26.0599 39.1489 26.2125 38.9976C26.3651 38.8462 26.49 38.712 26.49 38.6994C26.49 38.6709 26.531 38.6213 26.6925 38.4546C26.7626 38.3822 26.82 38.3149 26.82 38.305C26.82 38.2951 26.874 38.2355 26.94 38.1724C27.006 38.1094 27.06 38.0428 27.06 38.0244C27.06 38.006 27.0938 37.9574 27.135 37.9164C27.1763 37.8755 27.2102 37.8191 27.2103 37.7911C27.2105 37.7632 27.251 37.7087 27.3003 37.6699C27.3497 37.6312 27.39 37.5839 27.39 37.5647C27.39 37.5456 27.417 37.5106 27.45 37.487C27.483 37.4634 27.51 37.4232 27.51 37.3976C27.51 37.372 27.537 37.3318 27.57 37.3082C27.603 37.2846 27.63 37.2443 27.63 37.2188C27.63 37.1932 27.657 37.153 27.69 37.1294C27.723 37.1058 27.75 37.0709 27.75 37.052C27.75 37.033 27.7703 37.0008 27.795 36.9804C27.8198 36.96 27.84 36.9211 27.84 36.8939C27.84 36.8668 27.867 36.8252 27.9 36.8016C27.933 36.778 27.96 36.7347 27.96 36.7056C27.96 36.6764 27.9735 36.6526 27.99 36.6526C28.0065 36.6526 28.02 36.6307 28.02 36.6039C28.02 36.5772 28.0447 36.5336 28.0748 36.5071C28.1049 36.4805 28.1487 36.4153 28.1721 36.362C28.1955 36.3087 28.2248 36.2651 28.2374 36.2651C28.2498 36.2651 28.26 36.2383 28.26 36.2055C28.26 36.1728 28.2735 36.1459 28.29 36.1459C28.3065 36.1459 28.32 36.1252 28.32 36.1C28.32 36.0747 28.3463 36.026 28.3785 35.9916C28.4107 35.9574 28.4455 35.8908 28.4559 35.8439C28.4663 35.797 28.4872 35.7585 28.5024 35.7585C28.5176 35.7585 28.53 35.7317 28.53 35.6989C28.53 35.6661 28.5435 35.6393 28.56 35.6393C28.5765 35.6393 28.59 35.6125 28.59 35.5797C28.59 35.5469 28.6035 35.5201 28.62 35.5201C28.6365 35.5201 28.65 35.4933 28.65 35.4605C28.65 35.4277 28.6635 35.4009 28.68 35.4009C28.6965 35.4009 28.71 35.3607 28.71 35.3115C28.71 35.2623 28.7235 35.2221 28.74 35.2221C28.7565 35.2221 28.77 35.202 28.77 35.1774C28.77 35.1528 28.7835 35.1327 28.8 35.1327C28.8165 35.1327 28.83 35.1059 28.83 35.0731C28.83 35.0403 28.8435 35.0135 28.86 35.0135C28.8765 35.0135 28.89 34.9867 28.89 34.9539C28.89 34.9211 28.9035 34.8943 28.92 34.8943C28.9365 34.8943 28.95 34.854 28.95 34.8049C28.95 34.7557 28.9635 34.7155 28.98 34.7155C28.9965 34.7155 29.01 34.6886 29.01 34.6559C29.01 34.6231 29.022 34.5963 29.0366 34.5963C29.0513 34.5963 29.0723 34.5359 29.0834 34.4621C29.0946 34.3884 29.1164 34.328 29.1319 34.328C29.1473 34.328 29.16 34.2878 29.16 34.2386C29.16 34.1895 29.1735 34.1492 29.19 34.1492C29.2065 34.1492 29.22 34.109 29.22 34.0598C29.22 34.0107 29.2335 33.9704 29.25 33.9704C29.2665 33.9704 29.28 33.9369 29.28 33.8959C29.28 33.8549 29.2935 33.8214 29.31 33.8214C29.3265 33.8214 29.34 33.7812 29.34 33.732C29.34 33.6828 29.3535 33.6426 29.37 33.6426C29.3865 33.6426 29.4 33.6024 29.4 33.5532C29.4 33.504 29.4135 33.4638 29.43 33.4638C29.4465 33.4638 29.46 33.4311 29.46 33.3911C29.46 33.3511 29.4735 33.31 29.49 33.2999C29.5065 33.2898 29.52 33.2353 29.52 33.1789C29.52 33.1225 29.5335 33.0764 29.55 33.0764C29.5665 33.0764 29.58 33.0227 29.58 32.9572C29.58 32.8916 29.5935 32.838 29.61 32.838C29.6265 32.838 29.64 32.7918 29.64 32.7354C29.64 32.679 29.6526 32.6251 29.668 32.6157C29.6834 32.6063 29.7054 32.4914 29.7169 32.3606C29.7284 32.2298 29.7495 32.1227 29.7639 32.1227C29.7782 32.1227 29.79 32.0557 29.79 31.9737C29.79 31.8918 29.8035 31.8247 29.82 31.8247C29.8367 31.8247 29.85 31.7452 29.85 31.6459C29.85 31.5466 29.8634 31.4671 29.88 31.4671C29.8969 31.4671 29.91 31.3835 29.91 31.2758C29.91 31.1494 29.9227 31.0804 29.9475 31.0722C29.977 31.0625 29.985 30.6737 29.985 29.2618C29.985 27.8498 29.977 27.4611 29.9475 27.4513C29.9227 27.4431 29.91 27.3741 29.91 27.2477C29.91 27.1401 29.8969 27.0565 29.88 27.0565C29.8634 27.0565 29.85 26.977 29.85 26.8776C29.85 26.7783 29.8367 26.6988 29.82 26.6988C29.8035 26.6988 29.79 26.6385 29.79 26.5647C29.79 26.491 29.7785 26.4306 29.7644 26.4306C29.7502 26.4306 29.7294 26.32 29.7181 26.1848C29.7068 26.0495 29.6846 25.9344 29.6688 25.929C29.653 25.9235 29.64 25.8665 29.64 25.8023C29.64 25.7381 29.6265 25.6856 29.61 25.6856C29.5935 25.6856 29.58 25.6395 29.58 25.5831C29.58 25.5267 29.5665 25.4722 29.55 25.4621C29.5335 25.4519 29.52 25.3975 29.52 25.3411C29.52 25.2847 29.5065 25.2386 29.49 25.2386C29.4735 25.2386 29.46 25.1983 29.46 25.1492C29.46 25.1 29.4465 25.0598 29.43 25.0598C29.4135 25.0598 29.4 25.0195 29.4 24.9703C29.4 24.9212 29.3865 24.8809 29.37 24.8809C29.3535 24.8809 29.34 24.8474 29.34 24.8064C29.34 24.7655 29.3265 24.7319 29.31 24.7319C29.2935 24.7319 29.28 24.6917 29.28 24.6425C29.28 24.5934 29.2665 24.5531 29.25 24.5531C29.2335 24.5531 29.22 24.5129 29.22 24.4637C29.22 24.4145 29.2065 24.3743 29.19 24.3743C29.1735 24.3743 29.16 24.3416 29.16 24.3016C29.16 24.2616 29.1488 24.222 29.1353 24.2136C29.1216 24.2053 29.0852 24.1106 29.0543 24.0033C29.0234 23.8959 28.9873 23.8081 28.9741 23.8081C28.9608 23.8081 28.95 23.7839 28.95 23.7544C28.95 23.6878 28.883 23.5404 28.8525 23.5401C28.8401 23.5399 28.83 23.5131 28.83 23.4803C28.83 23.4475 28.8165 23.4207 28.8 23.4207C28.7835 23.4207 28.77 23.3804 28.77 23.3313C28.77 23.2821 28.7565 23.2419 28.74 23.2419C28.7235 23.2419 28.71 23.215 28.71 23.1823C28.71 23.1495 28.6991 23.1227 28.6856 23.1227C28.6722 23.1227 28.6427 23.0757 28.62 23.0183C28.5974 22.961 28.5678 22.914 28.5544 22.914C28.541 22.914 28.53 22.8872 28.53 22.8544C28.53 22.8217 28.5165 22.7948 28.5 22.7948C28.4835 22.7948 28.47 22.7752 28.47 22.7512C28.47 22.6906 28.3743 22.4968 28.3445 22.4968C28.331 22.4968 28.32 22.47 28.32 22.4372C28.32 22.4044 28.3065 22.3776 28.29 22.3776C28.2735 22.3776 28.26 22.3575 28.26 22.3329C28.26 22.3083 28.2465 22.2882 28.23 22.2882C28.2135 22.2882 28.2 22.2614 28.2 22.2286C28.2 22.1958 28.1865 22.169 28.17 22.169C28.1535 22.169 28.14 22.1452 28.14 22.116C28.14 22.0868 28.113 22.0436 28.08 22.02C28.047 21.9964 28.02 21.9532 28.02 21.924C28.02 21.8948 28.0065 21.871 27.99 21.871C27.9735 21.871 27.96 21.8534 27.96 21.8319C27.96 21.8104 27.9347 21.7658 27.9037 21.7328C27.8727 21.6997 27.8381 21.6435 27.8267 21.6079C27.8153 21.5723 27.7934 21.5432 27.778 21.5432C27.7626 21.5432 27.75 21.5193 27.75 21.4901C27.75 21.461 27.723 21.4178 27.69 21.3942C27.657 21.3705 27.63 21.3303 27.63 21.3048C27.63 21.2792 27.603 21.239 27.57 21.2153C27.537 21.1917 27.51 21.1582 27.51 21.1408C27.51 21.1235 27.483 21.09 27.45 21.0663C27.417 21.0427 27.39 21.0049 27.39 20.9823C27.39 20.9597 27.3495 20.9037 27.3 20.8577C27.2505 20.8118 27.21 20.756 27.21 20.7337C27.21 20.7114 27.1763 20.6571 27.135 20.6128C27.0938 20.5687 27.06 20.5242 27.06 20.514C27.06 20.5038 27.006 20.4439 26.94 20.3809C26.874 20.3179 26.82 20.2522 26.82 20.235C26.82 20.2176 26.7458 20.1273 26.655 20.0342C26.5643 19.9412 26.49 19.8534 26.49 19.8393C26.49 19.8251 25.9433 19.2706 25.275 18.6072C24.6068 17.9437 24.06 17.3887 24.06 17.3739C24.06 17.3592 23.9326 17.2218 23.7769 17.0685C23.6211 16.9152 23.476 16.7722 23.4544 16.7507C23.4327 16.7292 23.2868 16.5851 23.13 16.4304C22.9733 16.2757 22.8354 16.139 22.8236 16.1267C22.0397 15.3068 21.8924 15.1893 21.6839 15.2179Z" fill="#F4C249"/>
</g>
<defs>
<clipPath id="clip0_0_77">
<rect width="30" height="43.0531" fill="white" transform="translate(0 0.473463)"/>
</clipPath>
</defs>
</svg>
