<svg width="657" height="40" viewBox="0 0 657 40" fill="none" xmlns="http://www.w3.org/2000/svg">
<g clip-path="url(#clip0_0_121)">
<g clip-path="url(#clip1_0_121)">
<path fill-rule="evenodd" clip-rule="evenodd" d="M269.893 15.4811C240.038 16.3672 210.534 17.4568 181.762 18.648C141.033 20.3331 100.32 22.0763 59.8515 24.8364C47.1131 25.708 34.177 26.26 21.5182 27.3495C13.5718 28.0322 3.03509 29.0054 1.65228 29.2087C0.929011 29.325 0.613474 29.4994 0.511515 29.5576C-0.205382 29.9643 -0.0745744 30.3564 0.330074 30.6614C0.492571 30.7922 0.903476 31.1119 2.04414 31.1555C78.3283 34.1334 156.333 28.3228 232.71 27.7126C365.16 26.6667 501.626 30.8214 633.025 39.886C634.172 39.9587 635.287 39.5954 635.446 39.0579C635.638 38.5349 634.809 38.0265 633.662 37.9539C502.04 28.8747 365.352 24.7055 232.646 25.7659C161.466 26.3325 88.881 31.4314 17.6024 29.6882C19.2401 29.543 20.846 29.3976 22.3117 29.2669C34.9195 28.1774 47.8013 27.64 60.4888 26.7684C100.871 24.0083 141.501 22.2651 182.177 20.5945C232.646 18.5026 285.314 16.7013 338.396 15.8588C357.386 15.9895 376.312 16.1203 395.238 16.2801C436.181 16.6287 477.315 17.6456 518.162 19.0111C530.461 19.4324 542.76 19.8682 555.058 20.2459C559.137 20.3766 569.651 20.7542 571.117 20.7252C572.933 20.6961 573.283 19.9989 573.315 19.8827C573.411 19.6212 573.347 19.258 572.455 18.953C572.359 18.9094 571.786 18.764 570.511 18.6769C496.241 13.5344 416.936 12.6775 338.46 13.9122C255.682 13.3748 172.586 13.1422 90.0186 12.8953C88.8365 12.8953 87.8711 13.3311 87.8615 13.8686C87.8552 14.4061 88.8077 14.842 89.9898 14.8565C149.776 15.0308 209.865 15.2051 269.893 15.4811Z" fill="#F4C249"/>
</g>
</g>
<defs>
<clipPath id="clip0_0_121">
<rect width="657" height="38.9296" fill="white" transform="translate(0 0.895264)"/>
</clipPath>
<clipPath id="clip1_0_121">
<rect width="832" height="62" fill="white" transform="translate(-121 -22.1047)"/>
</clipPath>
</defs>
</svg>
